<?xml version="1.0" standalone="no"?>
<!DOCTYPE svg PUBLIC "-//W3C//DTD SVG 20010904//EN"
 "http://www.w3.org/TR/2001/REC-SVG-20010904/DTD/svg10.dtd">
<svg version="1.0" xmlns="http://www.w3.org/2000/svg"
 width="6676.000000pt" height="5000.000000pt" viewBox="0 0 6676.000000 5000.000000"
 preserveAspectRatio="xMidYMid meet">
<metadata>
Created by potrace 1.16, written by Peter Selinger 2001-2019
</metadata>
<g transform="translate(0.000000,5000.000000) scale(0.100000,-0.100000)"
fill="#000000" stroke="none">
<path d="M29925 43095 c-344 -55 -652 -239 -810 -485 -185 -287 -162 -701 55
-1020 21 -30 73 -93 116 -139 92 -97 147 -175 174 -248 25 -68 44 -177 35
-211 -8 -35 -4 -29 81 93 l68 100 4 118 c5 150 0 177 -38 199 -42 24 -107 128
-120 194 -23 110 13 184 88 184 39 0 103 -34 128 -68 10 -14 19 -10 69 33 85
72 108 111 145 237 45 155 84 262 110 298 15 22 62 50 153 95 145 71 258 105
351 105 76 0 130 15 156 42 47 51 5 177 -92 277 -170 173 -399 240 -673 196z"/>
<path d="M28370 40612 c-74 -25 -116 -48 -169 -90 -177 -144 -317 -539 -267
-754 37 -158 164 -360 388 -613 214 -242 698 -692 1017 -945 l43 -35 161 164
c102 105 238 262 376 434 296 370 311 389 303 403 -19 33 -327 399 -533 633
-408 463 -690 687 -986 787 -105 36 -253 43 -333 16z"/>
<path d="M30424 40225 c95 -102 96 -468 4 -1005 -16 -96 -32 -188 -34 -205 -5
-34 -22 -22 453 -316 l221 -137 74 92 c297 369 326 416 466 741 89 207 94 179
-45 268 -216 138 -425 257 -648 367 -188 93 -412 190 -493 215 l-22 6 24 -26z"/>
<path d="M24581 38930 c-201 -147 -366 -271 -368 -276 -2 -5 47 -27 109 -49
62 -21 286 -101 498 -176 212 -75 387 -136 389 -134 2 2 -15 66 -37 142 -22
76 -80 273 -127 438 -48 165 -90 305 -93 311 -4 6 -153 -96 -371 -256z"/>
<path d="M19970 36323 c-8 -2 -22 -7 -30 -10 -8 -3 -26 -8 -40 -10 -14 -2 -26
-8 -28 -13 -2 -5 -10 -6 -17 -4 -8 3 -20 2 -27 -2 -7 -4 -21 -9 -33 -10 -11
-1 -87 -20 -170 -42 -82 -22 -211 -54 -285 -72 -74 -18 -137 -37 -138 -42 -2
-4 -7 -6 -12 -3 -5 3 -73 -11 -152 -30 -79 -19 -152 -37 -163 -39 -11 -2 -162
-35 -335 -74 -173 -39 -343 -76 -377 -83 -35 -6 -63 -16 -63 -21 0 -5 -4 -6
-10 -3 -9 6 -355 -58 -390 -72 -8 -3 -21 -5 -28 -4 -8 1 -20 -3 -27 -9 -8 -7
-18 -9 -23 -6 -8 5 -245 -37 -362 -64 -25 -6 -58 -12 -75 -14 -84 -11 -126
-19 -130 -27 -3 -4 -11 -6 -18 -3 -7 2 -35 0 -62 -6 -28 -6 -57 -11 -65 -12
-8 0 -62 -9 -120 -20 -58 -11 -127 -22 -155 -25 -27 -3 -55 -9 -61 -14 -6 -5
-13 -6 -17 -3 -5 6 -270 -33 -297 -43 -8 -3 -28 -7 -45 -8 -46 -3 -131 -14
-225 -30 -47 -7 -130 -19 -185 -25 -55 -7 -103 -14 -107 -16 -3 -2 -30 -6 -60
-9 -29 -3 -66 -7 -83 -9 -16 -2 -77 -10 -135 -16 -58 -6 -112 -14 -120 -17 -8
-3 -33 -6 -55 -7 -102 -6 -295 -30 -295 -37 0 -4 -8 -5 -18 -2 -10 2 -83 -3
-163 -11 -79 -9 -175 -18 -214 -22 -38 -3 -77 -8 -85 -11 -15 -5 -46 -8 -168
-11 -35 -1 -61 -5 -59 -9 3 -5 -21 -6 -54 -5 -32 2 -59 0 -59 -5 0 -4 -19 -7
-42 -6 -24 1 -88 -3 -143 -8 -55 -5 -147 -12 -205 -15 -58 -3 -112 -8 -120
-10 -8 -3 -73 -7 -145 -10 -71 -2 -143 -6 -160 -8 -16 -3 -106 -8 -200 -12
-93 -3 -173 -8 -176 -10 -4 -2 -112 -7 -240 -10 -129 -3 -263 -9 -298 -13 -84
-10 -1926 -10 -2052 0 -53 4 -196 10 -319 13 -122 4 -226 8 -229 10 -7 5 -138
10 -273 10 -49 1 -88 4 -88 7 0 3 -62 9 -138 13 -75 4 -166 9 -201 13 -53 5
-63 4 -56 -8 8 -12 6 -12 -8 0 -10 7 -47 15 -85 17 -37 2 -139 10 -227 18
-350 32 -416 37 -425 31 -5 -3 -11 -1 -14 4 -5 8 -134 22 -246 26 -25 1 -52 5
-60 8 -8 3 -42 8 -75 11 -33 2 -104 10 -159 16 -54 6 -101 9 -104 6 -3 -3 -10
-2 -17 4 -6 5 -46 10 -88 12 -42 2 -77 6 -77 11 0 4 -16 7 -36 7 -27 0 -35 -4
-31 -14 3 -8 2 -16 -3 -18 -5 -2 -11 -28 -13 -58 -3 -30 -7 -62 -11 -70 -5
-16 -65 -363 -70 -415 -2 -16 -6 -37 -9 -45 -12 -35 -57 -341 -52 -350 3 -6 2
-10 -3 -10 -7 0 -39 -171 -49 -265 -1 -16 -11 -77 -22 -135 -19 -106 -21 -116
-24 -170 -1 -16 -5 -30 -8 -30 -6 0 -20 -79 -25 -140 -1 -14 -4 -32 -7 -40 -7
-21 -38 -207 -36 -217 1 -4 -1 -15 -4 -23 -7 -17 -38 -206 -35 -217 0 -5 -2
-15 -5 -23 -11 -27 -75 -432 -72 -451 2 -11 0 -19 -4 -19 -7 0 -30 -126 -37
-195 -1 -11 -4 -27 -7 -35 -5 -14 -22 -120 -32 -202 -3 -21 -9 -57 -14 -80 -5
-24 -35 -196 -66 -383 -62 -373 -60 -366 -81 -479 -7 -44 -12 -82 -9 -84 2 -3
0 -13 -5 -22 -5 -10 -12 -40 -14 -67 -2 -26 -6 -55 -9 -63 -12 -33 -39 -212
-33 -217 3 -3 1 -12 -5 -20 -6 -7 -9 -22 -6 -32 3 -11 2 -21 -2 -23 -9 -4
-106 -596 -104 -636 1 -19 -3 -30 -9 -26 -6 4 -9 -4 -7 -17 1 -13 -1 -31 -4
-39 -14 -38 -14 -69 1 -75 9 -3 19 0 24 7 5 9 8 9 8 1 0 -6 8 -10 18 -9 9 2
24 -1 32 -5 27 -14 184 -28 191 -17 5 7 8 7 10 -1 2 -5 29 -13 59 -16 30 -3
111 -12 180 -21 69 -8 135 -13 148 -11 12 2 22 1 22 -3 0 -4 15 -7 33 -7 17 0
43 -3 57 -7 14 -3 64 -8 112 -10 48 -2 92 -7 97 -11 6 -3 11 0 11 7 0 10 2 10
9 -1 6 -9 21 -12 45 -9 19 2 37 1 38 -4 2 -4 53 -9 113 -12 61 -2 117 -6 125
-9 34 -13 140 -16 140 -4 0 8 3 9 8 2 10 -16 54 -17 45 -2 -3 7 3 4 14 -6 16
-14 35 -18 75 -16 30 1 58 0 64 -3 8 -5 108 -13 289 -24 44 -2 120 -7 169 -10
72 -5 87 -3 80 8 -4 8 0 7 12 -3 15 -13 64 -18 244 -27 124 -6 242 -10 263 -9
21 1 41 -1 44 -6 3 -4 39 -8 81 -7 43 0 169 -4 282 -10 113 -6 248 -10 300
-10 92 0 312 -6 552 -13 73 -3 115 -1 111 5 -3 6 3 5 14 0 24 -13 552 -16 571
-3 8 4 19 17 25 29 7 11 28 48 48 83 20 35 40 78 43 94 4 17 9 38 12 48 5 16
-18 17 -383 17 -920 0 -2002 49 -3023 135 -96 8 -193 17 -215 20 l-40 5 -1 93
c0 92 -18 181 -50 254 -10 21 -18 40 -19 43 -7 23 -30 60 -37 60 -4 0 -7 5 -6
12 2 7 -4 12 -12 13 -8 0 -14 7 -13 15 5 29 -184 210 -201 193 -3 -3 -6 -2 -6
3 0 15 -59 46 -73 38 -6 -4 -9 -3 -4 1 8 9 -52 40 -88 47 -11 1 -22 6 -25 10
-3 3 -43 14 -90 23 -91 19 -100 22 -84 33 12 8 126 720 118 734 -4 6 -2 13 3
17 11 7 46 227 38 240 -3 5 -1 12 4 15 5 3 12 27 15 53 4 27 18 116 31 198 25
152 82 514 181 1129 30 186 51 343 48 348 -4 6 -2 13 3 17 11 7 47 230 39 238
-3 4 -2 11 3 17 5 6 21 90 36 186 15 96 28 176 29 177 1 2 54 5 117 6 115 4
249 35 249 58 0 6 4 8 9 4 9 -5 77 28 136 68 17 11 67 58 113 105 63 65 81 90
77 106 -3 12 -2 15 1 8 14 -30 123 191 110 224 -3 7 -1 16 4 19 6 4 10 17 10
30 0 13 4 26 9 29 5 3 112 -3 237 -14 344 -29 655 -51 689 -49 16 1 37 -1 45
-4 23 -8 505 -31 529 -24 12 3 19 2 16 -2 -9 -15 924 -40 1485 -41 394 0 1261
17 1287 25 7 2 108 7 224 10 117 3 216 8 219 10 4 3 70 7 147 10 191 6 772 49
1158 85 725 67 1396 151 2130 266 311 48 348 55 365 61 8 3 33 7 55 9 22 2 74
10 115 19 41 8 92 17 112 20 21 2 72 11 115 19 43 9 152 29 243 46 276 52 335
64 338 72 2 5 8 6 12 3 8 -5 186 28 305 56 22 5 117 25 210 44 214 45 475 104
495 112 8 3 18 6 21 5 3 0 47 10 97 23 51 12 94 20 96 16 2 -3 9 -26 15 -51
18 -70 52 -150 64 -150 6 0 7 -3 4 -6 -8 -8 24 -64 35 -64 4 0 8 -6 8 -12 1
-17 46 -68 60 -68 6 0 9 -3 7 -7 -3 -5 1 -14 9 -21 8 -7 14 -11 14 -9 0 3 16
-11 35 -29 40 -38 165 -100 240 -120 104 -28 222 -28 361 0 4 0 8 -10 9 -24 3
-23 50 -272 130 -680 19 -96 71 -364 115 -595 44 -231 83 -427 87 -435 3 -8 5
-19 4 -24 -1 -4 7 -52 18 -105 11 -53 22 -116 26 -141 4 -25 15 -54 24 -64 9
-11 10 -16 4 -12 -16 9 -17 13 7 -102 10 -53 42 -216 70 -362 28 -146 59 -308
70 -360 50 -251 72 -380 67 -392 -3 -8 -25 -20 -48 -27 -24 -7 -56 -20 -71
-27 -15 -8 -31 -15 -35 -15 -22 -1 -213 -123 -213 -136 0 -2 5 -1 12 3 7 4 8
3 4 -5 -4 -6 -12 -9 -17 -5 -15 9 -118 -102 -174 -186 -94 -143 -152 -359
-128 -478 l10 -51 -166 -40 c-91 -22 -323 -74 -516 -116 -192 -41 -390 -85
-440 -95 -198 -44 -863 -171 -977 -187 -21 -3 -38 -10 -38 -15 0 -5 -5 -6 -10
-3 -6 4 -23 4 -39 0 -26 -5 -29 -10 -34 -63 -4 -31 -15 -91 -26 -132 -28 -103
-29 -99 27 -88 26 5 54 12 62 15 8 3 20 5 26 5 6 -1 33 3 60 8 27 6 63 12 79
14 55 7 406 75 675 131 146 31 273 56 283 56 9 0 15 4 12 9 -3 6 1 7 9 4 14
-5 122 13 140 24 5 3 27 7 50 9 22 2 42 7 46 11 3 4 19 8 35 9 57 4 180 36
199 52 11 9 16 10 12 4 -9 -17 -9 -17 114 12 58 14 119 28 135 31 17 3 73 17
125 30 52 14 106 26 120 29 69 11 295 69 298 76 2 5 8 7 12 4 9 -5 870 209
888 221 2 1 -17 103 -43 226 -25 122 -48 236 -50 253 -6 42 -35 177 -42 195
-3 8 -7 33 -9 55 -2 22 -7 47 -10 55 -4 8 -8 22 -9 30 -9 79 -40 208 -48 203
-6 -3 -7 -1 -3 6 7 11 -39 273 -69 396 -9 33 -17 74 -19 90 -7 61 -38 200 -47
211 -5 6 -7 13 -4 16 10 10 -67 373 -84 392 -9 11 -10 16 -3 12 14 -9 11 29
-10 109 -6 22 -12 51 -14 65 -9 74 -39 197 -53 214 -9 11 -10 16 -3 12 6 -4
12 -5 12 -3 0 21 -44 215 -51 223 -5 6 -6 13 -3 17 6 5 -11 106 -23 137 -3 8
-7 26 -8 40 -7 62 -28 149 -36 144 -5 -3 -6 1 -3 9 7 18 -34 238 -48 254 -5 7
-7 16 -4 21 9 16 -15 121 -28 118 -6 -2 -8 -1 -3 1 10 7 9 51 -3 58 -5 3 -7
12 -3 20 3 9 0 22 -7 30 -6 8 -9 18 -6 23 9 14 -29 184 -39 175 -4 -4 -5 -3
-1 4 8 15 -4 94 -14 88 -5 -3 -6 3 -4 12 3 10 -4 61 -16 113 -11 52 -23 109
-25 125 -3 17 -14 71 -25 120 -11 50 -22 106 -25 125 -10 63 -67 345 -72 360
-4 8 -6 17 -5 20 0 3 -17 91 -39 195 -21 105 -41 206 -44 225 -11 69 -14 74
-45 63z"/>
<path d="M28990 35040 c0 -4 -7 -93 -15 -196 -8 -104 -21 -283 -30 -399 -8
-115 -22 -295 -30 -400 -15 -193 -34 -447 -60 -815 -20 -273 -42 -564 -56
-731 -6 -75 -9 -147 -8 -160 2 -13 0 -29 -4 -36 -11 -17 50 -136 65 -127 7 4
8 3 4 -4 -11 -17 31 -105 45 -96 7 4 9 3 6 -4 -10 -15 3 -43 16 -35 5 3 7 1 4
-4 -9 -14 41 -123 55 -123 6 0 8 -3 5 -7 -4 -3 1 -12 11 -20 9 -8 11 -12 4 -8
-10 5 -10 1 0 -19 6 -14 15 -26 20 -26 5 0 7 -4 4 -9 -3 -5 4 -20 15 -35 11
-14 18 -26 15 -26 -4 0 5 -22 19 -50 14 -27 30 -50 36 -50 5 0 7 -5 4 -11 -4
-5 1 -19 11 -30 9 -10 14 -19 10 -19 -4 0 1 -13 10 -29 10 -17 21 -28 25 -26
4 3 10 -2 13 -11 3 -9 2 -12 -5 -9 -6 4 4 -22 22 -57 17 -34 36 -66 41 -69 5
-3 9 -9 9 -13 -3 -18 0 -27 7 -22 4 2 9 -3 10 -12 1 -9 6 -44 11 -77 5 -33 10
-333 10 -667 1 -475 4 -607 14 -611 10 -4 10 -6 0 -6 -10 -1 -13 -74 -13 -328
0 -216 4 -323 10 -313 6 9 10 10 10 3 0 -6 -5 -15 -11 -18 -7 -5 -8 -235 -3
-755 6 -603 5 -752 -6 -765 -7 -8 -9 -15 -4 -15 5 0 7 -28 5 -62 -2 -35 0
-159 4 -275 6 -172 10 -213 21 -213 8 0 14 8 15 18 0 10 3 12 6 4 2 -6 9 -9
14 -6 12 7 53 13 414 59 154 20 281 38 283 40 2 2 8 32 12 67 5 35 14 95 21
133 17 108 20 127 25 170 2 22 9 74 16 115 6 41 12 94 12 117 1 22 4 39 7 37
4 -2 9 27 13 64 4 37 12 81 18 99 9 23 9 42 1 68 -6 19 -7 33 -2 29 5 -3 9 2
9 11 0 9 -4 14 -8 11 -5 -3 -9 1 -9 9 0 8 4 12 8 9 5 -3 11 5 13 18 12 52 45
312 41 316 -2 3 0 12 5 22 5 9 11 43 14 76 3 32 10 86 15 119 33 200 41 279
30 285 -8 6 -8 9 0 11 13 5 45 193 37 222 -2 9 -1 17 3 17 4 0 12 39 18 88 8
65 8 89 -1 94 -8 6 -8 8 0 8 12 0 21 43 30 141 2 30 7 69 11 88 4 27 3 32 -8
26 -8 -5 -7 0 3 11 12 14 18 41 20 92 2 39 7 72 11 72 5 0 7 18 4 40 -2 22 0
43 5 46 5 3 8 20 7 38 -2 17 0 36 4 43 4 6 7 22 6 34 0 13 8 96 20 184 11 88
22 183 25 210 3 28 10 97 16 153 7 57 10 117 8 132 -2 16 -1 27 4 24 4 -3 8 2
8 10 0 9 -6 16 -12 16 -10 0 -10 2 0 9 9 5 15 38 17 95 3 48 7 91 10 97 8 12
15 385 8 426 -3 18 -9 30 -14 27 -5 -3 -6 2 -3 10 6 17 -43 203 -59 224 -5 6
-7 12 -4 12 6 0 -17 86 -36 129 -5 14 -10 29 -9 33 1 6 -31 106 -45 138 -3 8
-8 25 -10 38 -2 12 -9 35 -15 50 -6 15 -12 32 -14 39 -13 65 -231 700 -238
696 -5 -3 -6 -1 -2 5 8 13 -131 449 -145 458 -5 3 -7 9 -4 13 5 10 -33 130
-48 148 -5 7 -14 10 -20 6 -6 -3 -7 -1 -3 6 4 6 11 9 16 6 7 -4 -27 107 -47
155 -3 8 -7 21 -9 28 -1 8 -6 21 -10 30 -4 9 -8 24 -10 33 -2 9 -29 94 -59
190 -31 96 -79 246 -107 334 -27 88 -54 165 -59 171 -5 6 -6 13 -3 16 3 3 -2
22 -10 43 -11 25 -20 34 -28 29 -9 -6 -9 -3 1 9 11 14 11 20 1 32 -7 8 -9 15
-5 15 4 0 2 6 -4 13 -6 8 -9 16 -6 19 3 2 -5 36 -18 74 -13 38 -34 108 -47
157 -20 73 -28 87 -45 87 -11 0 -113 2 -227 4 -115 2 -208 0 -208 -4z"/>
<path d="M13443 33963 c3 -5 -36 -9 -87 -10 -50 -1 -106 -5 -125 -8 l-33 -6 6
-117 c3 -64 7 -144 8 -176 l2 -60 -80 -26 c-66 -23 -176 -74 -243 -115 -44
-26 -136 -114 -177 -169 -41 -54 -92 -142 -95 -163 -2 -13 -10 -36 -21 -63
-16 -39 -22 -219 -9 -270 7 -25 14 -58 17 -75 15 -80 163 -268 197 -249 6 4 9
4 5 -1 -10 -10 25 -36 97 -72 82 -41 175 -74 335 -118 251 -68 373 -125 408
-192 17 -31 15 -119 -3 -153 -21 -40 -92 -94 -145 -110 -25 -7 -49 -17 -55
-21 -8 -6 -168 -5 -485 3 -67 2 -88 -6 -149 -57 -30 -26 -71 -111 -71 -150 0
-30 28 -98 52 -125 7 -8 31 -25 53 -37 48 -26 218 -47 332 -41 52 2 74 -1 78
-9 2 -7 5 -78 6 -156 l1 -144 41 4 c23 1 94 8 157 14 63 6 126 12 140 13 l25
1 -3 167 -2 167 41 11 c119 32 280 124 377 214 137 127 210 329 183 508 -12
81 -55 198 -72 198 -5 0 -9 6 -9 14 0 8 -31 43 -69 78 -113 104 -265 171 -561
247 -256 65 -346 123 -370 236 -10 49 -9 64 4 100 33 85 96 129 237 166 75 19
99 21 244 15 181 -7 206 -9 223 -20 17 -11 117 -11 133 0 8 5 20 9 27 10 29 5
84 58 107 104 32 63 33 127 3 188 -48 94 -159 127 -438 127 -63 0 -118 4 -121
8 -3 5 -7 74 -8 154 -1 79 -5 151 -8 159 -3 9 -21 14 -55 14 -27 0 -47 -3 -45
-7z"/>
<path d="M44600 32906 c-9 -12 -48 -336 -50 -416 0 -9 -73 -55 -181 -115 -114
-63 -185 -108 -192 -122 -19 -43 9 -63 207 -148 142 -61 188 -85 191 -100 6
-23 75 -377 75 -381 0 -1 7 -10 16 -18 36 -36 57 -22 202 143 116 130 145 158
164 155 13 -2 105 -13 204 -25 266 -31 271 -23 141 196 -45 77 -92 156 -103
175 l-20 35 89 193 c85 186 88 194 72 218 -9 15 -25 24 -40 24 -14 0 -106 -18
-205 -40 -99 -22 -186 -40 -192 -40 -7 0 -80 63 -163 140 -154 143 -185 161
-215 126z"/>
<path d="M17290 30524 c-457 -79 -1530 -233 -1805 -259 -22 -2 -148 -15 -280
-30 -388 -42 -697 -72 -1065 -100 -190 -15 -352 -30 -360 -33 -8 -3 -26 -4
-40 -3 -14 1 -131 -5 -260 -13 -488 -33 -1050 -56 -1697 -72 -150 -3 -273 -9
-273 -13 0 -3 9 -65 21 -136 18 -113 24 -131 40 -132 11 -1 19 1 19 5 0 4 159
8 353 9 457 3 777 17 788 35 7 10 9 10 9 1 0 -9 20 -13 68 -13 38 0 71 2 74 6
3 3 59 7 124 9 156 5 361 15 399 20 17 2 63 5 102 5 40 1 75 5 78 9 2 4 19 7
37 5 58 -5 672 42 1008 77 52 5 122 12 155 15 33 3 123 12 200 20 77 9 167 18
200 20 33 3 67 8 75 11 8 3 32 5 53 4 20 -2 37 2 37 7 0 5 12 8 28 6 15 -2
119 8 232 22 113 14 225 28 250 30 25 3 70 10 100 15 30 5 62 10 70 10 50 2
186 22 194 29 5 5 14 6 20 4 13 -5 601 78 870 122 157 26 159 27 191 63 118
132 191 234 179 252 -4 8 -3 9 4 5 7 -4 12 -1 12 8 0 9 -3 15 -7 15 -5 -1 -96
-17 -203 -35z"/>
<path d="M35199 28763 c-1 -5 -1 -11 -1 -14 1 -4 -28 -7 -64 -8 -35 0 -76 -4
-89 -7 -17 -4 -25 -2 -25 6 0 9 -4 9 -13 2 -7 -6 -35 -10 -62 -8 -28 1 -72 -1
-100 -5 -27 -5 -113 -10 -190 -12 -78 -2 -145 -6 -150 -9 -12 -7 -232 -23
-297 -21 -27 1 -48 -2 -48 -6 0 -5 -42 -12 -92 -16 -51 -5 -109 -10 -128 -12
-19 -1 -80 -9 -134 -17 -54 -8 -105 -12 -113 -9 -7 3 -19 1 -26 -5 -6 -5 -26
-9 -44 -7 -18 1 -30 -1 -28 -5 2 -4 -24 -10 -58 -13 -34 -3 -71 -9 -82 -12
-16 -6 -17 -5 -5 4 8 6 10 11 4 11 -5 0 -15 -5 -20 -10 -6 -6 -28 -12 -50 -15
-21 -2 -58 -9 -81 -15 -24 -5 -46 -9 -50 -8 -5 1 -34 -4 -65 -11 -32 -7 -62
-10 -67 -7 -5 4 -13 1 -16 -5 -4 -6 -18 -8 -32 -4 -16 4 -22 2 -18 -5 6 -10
-24 -15 -72 -12 -13 0 -23 -4 -23 -10 0 -6 -16 -9 -39 -6 -22 2 -37 0 -35 -4
3 -5 -5 -9 -18 -9 -41 -3 -53 -5 -69 -13 -9 -4 -20 -6 -25 -5 -5 1 -16 0 -24
-4 -13 -5 -74 -18 -105 -22 -5 -1 -17 -4 -25 -8 -37 -14 -61 -14 -68 -2 -5 10
-12 11 -22 5 -13 -8 -12 -10 3 -10 11 0 15 -5 11 -11 -3 -6 -15 -9 -25 -6 -10
3 -21 1 -24 -3 -3 -5 -24 -11 -48 -15 -23 -4 -71 -15 -106 -26 -35 -11 -66
-17 -69 -14 -3 3 -10 0 -17 -5 -7 -5 -25 -12 -41 -14 -16 -2 -36 -6 -44 -9
-64 -25 -156 -45 -164 -37 -6 6 -15 10 -20 10 -6 0 -4 -4 4 -10 20 -13 8 -21
-33 -23 -19 -1 -33 -5 -31 -9 6 -10 -55 -22 -106 -21 -34 1 -39 0 -20 -6 25
-7 25 -7 -8 -19 -25 -9 -31 -9 -26 1 4 7 -1 5 -12 -5 -21 -18 -129 -52 -142
-44 -20 12 -8 -44 24 -111 19 -40 34 -75 34 -79 -1 -4 3 -10 8 -13 18 -11 73
-132 66 -144 -4 -7 -3 -9 1 -4 5 4 31 -33 58 -83 43 -81 50 -89 68 -80 11 6
24 8 29 5 6 -3 10 -2 10 2 0 7 116 48 162 57 7 2 26 8 41 14 16 7 34 12 41 12
8 0 29 7 49 15 19 8 54 17 77 20 23 3 50 10 61 15 13 7 19 7 19 0 0 -5 -5 -10
-12 -10 -6 0 -9 -3 -5 -6 8 -8 43 13 37 22 -5 8 91 36 99 29 2 -3 10 0 17 5
10 9 30 14 94 24 9 1 20 5 25 8 25 15 86 20 101 7 12 -10 15 -10 12 1 -4 20
60 40 104 34 25 -4 39 -1 45 8 10 17 137 43 154 32 8 -4 10 -3 5 4 -5 8 2 13
21 14 53 3 58 4 68 10 6 4 29 9 50 12 22 3 58 10 80 15 22 6 72 13 110 17 39
3 77 10 85 14 9 5 41 11 70 15 66 7 86 10 165 23 33 6 67 10 75 11 8 0 42 5
75 11 33 6 68 9 77 6 10 -2 18 0 18 5 0 5 17 9 38 8 30 0 33 -2 17 -9 -15 -7
-16 -9 -4 -9 9 -1 22 6 29 14 9 11 25 14 50 11 21 -3 41 -2 45 2 4 4 21 7 38
8 18 1 48 4 67 8 34 7 35 7 10 -7 l-25 -15 27 1 c14 1 24 5 22 9 -7 11 10 17
71 23 43 5 60 3 66 -7 7 -10 9 -10 9 3 0 12 12 16 53 17 28 1 95 6 147 11 66
7 96 7 101 -1 5 -7 8 -7 10 1 3 7 67 14 179 21 1066 58 2204 -33 3200 -256
330 -74 799 -200 999 -269 58 -19 77 -22 83 -13 10 17 218 485 218 492 0 3
-71 28 -157 55 -648 206 -1403 367 -2128 456 -511 62 -857 85 -1410 91 -242 3
-450 7 -463 10 -13 2 -20 9 -17 14 3 6 4 10 1 10 -3 0 -7 -3 -7 -7z"/>
<path d="M47694 28721 c4 -5 2 -11 -2 -13 -12 -4 -53 -129 -46 -139 3 -5 1 -9
-4 -9 -6 0 -13 -11 -16 -24 -3 -13 -9 -32 -12 -43 -5 -15 -4 -15 5 -3 6 8 11
10 11 4 0 -6 -6 -17 -14 -23 -19 -16 -48 -100 -39 -114 3 -5 2 -8 -3 -4 -12 7
-127 -329 -118 -345 4 -6 3 -8 -4 -5 -12 8 -55 -110 -45 -126 4 -6 1 -7 -7 -2
-10 6 -12 4 -7 -8 4 -10 1 -17 -5 -17 -6 0 -8 -3 -5 -7 4 -3 2 -11 -3 -18 -5
-6 -11 -20 -13 -31 -2 -10 -10 -32 -16 -49 -21 -49 -181 -484 -181 -490 0 -4
5 -3 12 1 7 4 8 3 4 -5 -4 -6 -11 -9 -15 -7 -3 3 -17 -26 -30 -62 -13 -37 -41
-111 -63 -165 -21 -54 -36 -103 -33 -108 4 -5 2 -9 -3 -9 -14 0 -53 -115 -46
-136 4 -14 3 -15 -4 -6 -7 11 -10 10 -16 -3 -3 -9 -4 -21 0 -26 3 -5 1 -9 -3
-9 -14 0 -44 -94 -37 -116 4 -14 3 -16 -4 -5 -9 13 -16 3 -27 -39 -1 -3 -6
-16 -12 -30 -48 -114 -61 -153 -56 -167 4 -11 2 -14 -5 -9 -7 4 -13 1 -13 -8
-2 -24 -4 -29 -21 -61 -18 -35 -86 -203 -90 -225 -2 -8 -7 -18 -12 -21 -5 -4
-9 -20 -10 -37 0 -17 -5 -27 -10 -24 -5 3 -6 -2 -3 -12 4 -10 3 -15 -3 -11 -6
3 -11 -1 -11 -9 -2 -23 -3 -25 -38 -98 -18 -37 -34 -73 -35 -80 -1 -7 -8 -23
-14 -36 -7 -12 -10 -27 -7 -32 3 -6 1 -10 -4 -10 -6 0 -10 -3 -9 -7 1 -5 -3
-17 -9 -28 -11 -20 -148 -345 -184 -435 -9 -25 -31 -76 -49 -114 -17 -38 -28
-76 -25 -83 2 -8 1 -12 -4 -9 -16 11 -22 -27 -7 -48 38 -54 85 -98 97 -91 8 5
10 4 5 -4 -5 -7 8 -29 31 -54 21 -24 67 -78 103 -120 35 -42 67 -77 71 -77 5
0 14 19 73 154 14 32 23 63 19 70 -3 6 -3 8 2 4 9 -9 57 96 59 129 0 11 4 19
7 18 4 -3 120 261 125 285 1 5 27 67 49 115 25 55 94 230 97 245 2 8 5 17 8
20 6 6 41 91 155 380 42 107 85 215 95 240 88 212 221 580 214 592 -4 7 -3 10
1 5 5 -4 19 18 32 50 25 62 28 77 13 68 -6 -4 -7 1 -3 11 4 11 8 13 11 6 2 -7
8 -10 13 -6 5 3 25 -4 44 -16 19 -12 40 -18 46 -14 7 4 9 3 6 -3 -7 -11 72
-49 168 -81 184 -62 384 -62 566 -2 131 44 266 120 253 142 -4 6 -2 8 4 4 14
-8 84 53 75 67 -3 5 -2 7 4 4 27 -17 212 244 226 319 5 25 29 74 36 74 3 0 17
-9 31 -20 14 -11 28 -20 32 -20 4 0 31 -14 59 -31 37 -24 53 -29 62 -20 6 6
15 11 21 11 5 0 2 -6 -8 -13 -15 -11 -3 -20 99 -80 64 -38 120 -65 127 -61 7
4 8 3 4 -4 -8 -13 26 -34 46 -29 7 2 9 2 5 -1 -5 -2 1 -11 12 -19 12 -8 26
-11 33 -7 7 4 8 3 4 -4 -4 -7 -2 -12 3 -12 6 0 13 0 16 0 3 0 13 -8 23 -17 9
-10 44 -31 77 -48 33 -16 62 -33 65 -37 5 -5 122 -75 226 -133 61 -34 82 -47
138 -83 28 -18 57 -30 64 -27 7 3 11 1 8 -4 -5 -7 15 -22 34 -25 3 -1 19 -10
35 -22 75 -52 156 -95 166 -88 8 5 9 3 4 -6 -6 -10 -4 -12 9 -7 10 4 15 3 11
-3 -3 -6 4 -14 17 -19 13 -6 36 -19 52 -30 17 -11 33 -18 38 -15 4 3 8 1 8 -4
0 -15 109 -74 122 -66 6 4 8 3 4 -4 -5 -9 112 -83 149 -94 6 -1 18 -9 28 -18
10 -8 34 -24 55 -35 20 -11 58 -33 84 -49 26 -15 53 -24 59 -20 7 4 9 3 5 -4
-5 -8 95 -76 114 -77 3 0 19 -9 35 -21 67 -46 157 -94 167 -88 7 5 8 2 3 -6
-6 -10 -4 -12 11 -6 10 4 15 4 11 0 -9 -9 303 -195 315 -188 4 3 8 1 8 -4 0
-16 278 -174 291 -166 7 4 9 3 5 -4 -5 -8 93 -75 114 -77 3 0 23 -12 45 -26
22 -14 74 -45 115 -69 41 -23 127 -73 190 -111 63 -37 122 -69 130 -71 8 -2
19 -8 25 -15 5 -7 17 -13 25 -15 8 -2 19 -8 25 -14 10 -11 390 -234 399 -234
2 0 28 -16 58 -35 29 -19 59 -33 66 -30 7 3 11 1 8 -4 -3 -4 18 -21 47 -36 29
-16 83 -48 122 -72 71 -44 92 -52 79 -31 -4 7 -3 8 5 4 6 -4 9 -12 6 -17 -4
-5 2 -12 12 -16 10 -3 30 -15 45 -25 16 -11 33 -16 39 -12 7 4 9 3 6 -3 -8
-13 119 -87 134 -77 8 4 9 3 5 -4 -4 -7 6 -18 25 -27 35 -19 35 -10 -5 -155
-15 -52 -29 -122 -32 -155 -3 -33 -9 -100 -14 -150 -23 -233 47 -590 158 -811
67 -135 73 -144 84 -138 6 4 8 2 4 -4 -16 -27 221 -319 251 -308 8 3 12 2 8
-3 -7 -13 54 -63 67 -55 6 4 8 2 5 -3 -4 -6 2 -18 12 -27 18 -17 20 -16 31 1
9 16 10 15 4 -7 -3 -14 -3 -22 1 -18 3 3 15 -2 25 -12 18 -18 18 -22 3 -57
-52 -125 -122 -329 -118 -344 3 -10 1 -20 -4 -24 -7 -3 -9 1 -6 12 3 10 -2 3
-10 -15 -9 -18 -12 -38 -9 -44 4 -6 3 -8 -3 -5 -7 4 -42 -77 -49 -113 0 -3
-10 -25 -21 -50 -20 -44 -137 -340 -138 -350 -4 -26 -44 -74 -92 -110 -32 -24
-61 -48 -65 -54 -4 -6 -12 -11 -17 -11 -5 0 -22 -12 -38 -26 -16 -14 -37 -28
-46 -32 -11 -4 -15 -12 -11 -18 4 -7 3 -9 -3 -6 -12 7 -189 -122 -185 -135 1
-5 -1 -7 -6 -4 -5 3 -25 -6 -46 -20 -32 -22 -35 -28 -24 -42 12 -15 11 -16 -4
-3 -14 11 -21 11 -33 1 -8 -7 -13 -16 -10 -20 3 -5 0 -12 -6 -16 -8 -4 -9 -3
-5 4 12 19 -4 14 -35 -12 -15 -13 -25 -27 -21 -31 4 -5 1 -5 -5 -1 -11 6 -80
-40 -279 -188 -23 -17 -39 -35 -36 -40 3 -5 0 -6 -6 -2 -12 7 -105 -52 -134
-86 -10 -11 -18 -17 -18 -14 0 4 -16 -5 -35 -20 -19 -14 -32 -30 -29 -35 3 -5
-3 -6 -12 -2 -12 4 -15 3 -10 -5 4 -7 2 -10 -6 -7 -16 6 -90 -53 -83 -66 4 -5
-1 -6 -9 -3 -19 7 -79 -34 -70 -48 4 -7 2 -8 -5 -4 -15 9 -73 -32 -65 -46 4
-7 2 -8 -4 -4 -16 9 -93 -45 -87 -61 2 -7 0 -15 -6 -18 -5 -4 -9 -3 -8 2 4 22
-4 21 -41 -3 -22 -15 -37 -31 -33 -37 3 -6 1 -7 -5 -3 -6 4 -20 -2 -32 -14
-11 -11 -22 -19 -24 -17 -9 5 -66 -45 -61 -53 3 -6 -1 -7 -8 -4 -8 3 -39 -11
-69 -32 -66 -46 -78 -57 -57 -49 20 8 35 -10 18 -21 -7 -4 -9 -3 -5 4 9 14
-32 10 -62 -6 -12 -7 -19 -18 -16 -24 4 -6 3 -8 -4 -5 -14 10 -164 -92 -156
-105 4 -6 2 -8 -4 -4 -6 3 -43 -16 -84 -42 -40 -27 -92 -61 -116 -76 -25 -16
-40 -31 -36 -38 4 -6 3 -8 -4 -4 -5 3 -41 -14 -77 -39 -37 -25 -72 -45 -77
-45 -5 0 -7 -4 -4 -8 3 -5 0 -9 -7 -9 -19 0 -68 -34 -62 -43 3 -5 0 -12 -6
-16 -8 -4 -9 -3 -5 4 12 19 -8 14 -32 -8 -12 -11 -25 -20 -29 -20 -17 -1 -82
-57 -75 -65 4 -5 1 -5 -6 -1 -7 5 -45 -14 -95 -46 -45 -30 -119 -78 -164 -107
-46 -30 -80 -58 -76 -64 3 -6 1 -7 -6 -3 -15 10 -101 -45 -101 -64 0 -8 6 -55
14 -105 8 -49 20 -131 26 -180 6 -50 13 -100 15 -110 2 -11 4 -26 4 -32 1 -7
6 -13 12 -13 5 0 7 5 3 12 -4 6 -3 8 4 4 13 -8 138 72 134 86 -1 5 3 6 9 3 6
-4 41 13 77 37 37 25 102 67 146 94 43 27 87 56 96 66 10 9 20 14 23 12 2 -2
12 5 22 16 10 11 22 20 27 20 14 0 248 157 243 162 -3 3 1 5 7 5 22 0 217 136
211 146 -3 6 -1 7 5 3 14 -8 264 158 254 169 -4 5 -2 6 3 2 6 -3 31 8 55 24
53 35 59 41 40 36 -8 -2 -12 -2 -7 0 4 3 4 10 0 16 -4 8 -1 8 9 -1 13 -10 32
-1 119 59 57 38 103 74 102 78 -1 5 5 8 15 7 9 0 16 5 14 12 -1 8 1 11 6 8 12
-7 108 62 104 75 -1 6 2 8 8 4 10 -6 76 36 91 58 3 5 9 8 13 7 12 -3 116 72
116 83 0 6 3 7 6 4 4 -4 23 6 43 22 20 15 47 34 60 41 19 10 21 14 10 22 -11
8 -10 9 3 4 17 -5 81 32 108 63 8 9 19 18 23 19 24 4 332 232 329 243 -1 6 2
8 8 4 6 -3 23 3 38 15 15 12 129 96 255 186 134 98 225 170 221 176 -4 7 -2 8
5 4 14 -9 43 12 36 24 -3 5 0 12 6 16 8 4 9 3 5 -4 -11 -18 2 -14 34 10 16 11
26 26 23 31 -3 6 -1 7 6 3 6 -4 26 4 44 19 32 27 273 208 355 269 52 37 83 51
76 32 -9 -25 158 -242 178 -230 4 3 8 0 8 -6 0 -7 6 -10 14 -7 8 3 13 -1 12
-11 -1 -22 145 -119 241 -161 230 -99 477 -102 713 -9 95 37 201 99 193 111
-3 6 -1 7 4 4 6 -4 29 7 51 23 40 29 42 29 52 10 6 -11 16 -17 22 -14 7 4 8 2
4 -5 -5 -7 14 -46 43 -94 29 -45 110 -176 181 -292 71 -115 134 -209 140 -207
6 1 9 -2 5 -8 -8 -13 105 -201 117 -194 4 3 5 -1 3 -8 -3 -8 11 -34 32 -58 21
-24 31 -40 23 -35 -12 7 -12 4 2 -15 9 -14 22 -24 28 -22 6 1 9 -2 5 -8 -3 -5
29 -67 72 -137 206 -341 435 -708 444 -714 6 -3 9 -8 7 -11 -1 -3 13 -29 32
-59 19 -30 41 -66 48 -81 8 -15 18 -25 23 -22 5 3 9 2 8 -3 -4 -21 2 -34 13
-27 7 5 8 3 4 -5 -5 -7 -1 -20 7 -29 8 -9 22 -32 31 -50 10 -19 21 -30 28 -26
6 4 8 3 4 -4 -3 -5 18 -49 46 -97 29 -47 59 -96 65 -108 7 -12 17 -21 23 -20
5 2 7 -3 4 -11 -3 -7 2 -19 11 -26 8 -7 15 -16 15 -21 0 -18 52 -89 61 -83 5
3 7 -1 4 -8 -6 -17 38 -94 53 -91 7 2 9 -4 5 -14 -5 -12 -3 -14 7 -8 8 5 11 4
6 -3 -8 -14 62 -125 74 -117 6 3 7 0 4 -8 -5 -15 59 -131 68 -122 2 3 5 -1 5
-8 0 -6 13 -32 29 -56 16 -24 35 -56 43 -70 8 -14 31 -52 53 -83 21 -31 38
-59 38 -62 0 -13 77 -126 82 -120 3 3 5 -3 5 -13 -1 -10 4 -17 11 -15 8 1 11
-2 8 -7 -3 -5 12 -38 34 -73 22 -34 49 -79 60 -98 52 -89 63 -106 83 -127 11
-13 17 -23 14 -23 -4 0 12 -30 36 -67 24 -38 58 -94 76 -126 18 -31 36 -55 41
-52 5 3 12 0 16 -6 5 -8 3 -9 -6 -4 -17 11 -15 6 60 -117 35 -59 68 -104 72
-102 5 3 7 1 6 -4 -4 -14 134 -242 143 -236 4 2 11 -1 15 -7 4 -8 3 -9 -4 -5
-15 9 -15 1 1 -25 10 -17 9 -23 -1 -26 -26 -10 -72 -55 -65 -65 3 -6 1 -8 -5
-4 -13 8 -174 -165 -168 -181 3 -7 2 -12 -3 -10 -8 2 -61 -56 -61 -68 0 -3 6
-3 13 1 7 4 9 3 4 -2 -5 -5 -13 -9 -19 -9 -15 0 -89 -135 -81 -147 3 -6 2 -8
-4 -5 -13 8 -46 -61 -37 -76 4 -7 3 -9 -1 -4 -15 13 -92 -204 -79 -224 5 -8 3
-9 -6 -4 -10 6 -12 3 -8 -13 4 -12 3 -24 -1 -27 -18 -11 -36 -169 -35 -315 0
-125 5 -172 22 -245 28 -110 58 -194 80 -219 10 -11 11 -16 4 -12 -8 5 -4 -10
9 -32 13 -22 28 -38 34 -35 5 4 7 3 3 -2 -4 -4 -3 -14 3 -22 6 -7 10 -13 8
-14 -2 0 -11 -2 -21 -4 -24 -4 -129 -86 -123 -95 3 -5 0 -12 -6 -16 -8 -4 -9
-3 -5 4 9 15 -1 16 -17 2 -7 -6 -24 -20 -40 -31 -15 -11 -25 -25 -22 -30 4 -5
-2 -6 -11 -2 -13 5 -15 3 -9 -7 5 -9 4 -11 -3 -6 -6 4 -22 -4 -34 -16 -13 -13
-26 -23 -30 -23 -3 0 -20 -12 -37 -27 -17 -16 -33 -28 -36 -28 -5 0 -81 -56
-95 -70 -3 -3 -24 -18 -47 -34 -24 -16 -40 -33 -36 -39 3 -5 2 -7 -4 -4 -14 9
-85 -42 -77 -55 4 -6 3 -8 -3 -5 -10 6 -71 -36 -285 -196 -37 -28 -64 -55 -61
-60 3 -6 1 -7 -5 -3 -15 9 -324 -213 -315 -227 3 -5 1 -7 -5 -3 -13 8 -128
-71 -124 -86 1 -5 -2 -7 -8 -3 -7 5 -104 -58 -130 -85 -3 -3 -24 -18 -48 -33
-25 -16 -40 -32 -36 -39 4 -7 3 -8 -4 -4 -15 9 -134 -73 -125 -87 3 -6 1 -7
-5 -3 -12 7 -175 -102 -205 -137 -10 -12 -15 -15 -11 -7 9 16 -93 -54 -113
-77 -6 -8 -15 -14 -20 -15 -4 0 -7 -4 -5 -10 1 -5 -2 -7 -7 -4 -5 3 -19 -2
-32 -12 -13 -10 -32 -22 -42 -25 -10 -4 -16 -11 -13 -15 3 -5 0 -9 -7 -9 -19
0 -252 -163 -249 -175 1 -5 -2 -6 -8 -3 -6 4 -18 -1 -25 -11 -8 -11 -15 -16
-15 -11 0 7 -109 -65 -200 -132 -19 -14 -37 -26 -40 -26 -3 0 -54 -34 -114
-75 -60 -41 -116 -79 -125 -85 -8 -5 -62 -41 -120 -80 -57 -38 -111 -74 -119
-80 -66 -42 -212 -134 -235 -149 -16 -9 -25 -22 -21 -28 5 -7 3 -8 -5 -3 -20
12 -140 -74 -136 -97 2 -10 0 -16 -6 -13 -5 4 -7 11 -4 16 11 17 -5 9 -112
-61 -60 -38 -132 -83 -161 -101 -29 -17 -50 -34 -47 -39 3 -5 0 -12 -6 -16 -8
-4 -9 -3 -5 4 4 7 5 12 2 12 -9 0 -201 -125 -204 -132 -2 -5 -10 -8 -18 -8 -9
0 -12 -5 -8 -12 4 -6 3 -8 -3 -5 -12 8 -169 -88 -166 -102 2 -6 -4 -8 -14 -4
-11 4 -14 3 -9 -5 5 -8 2 -10 -8 -6 -9 3 -16 1 -16 -5 0 -6 -5 -11 -10 -11
-20 0 -90 -53 -83 -63 3 -6 1 -7 -5 -3 -14 8 -94 -33 -86 -45 2 -4 -1 -11 -7
-15 -8 -4 -9 -3 -5 4 4 7 5 12 2 12 -7 0 -211 -125 -263 -161 -23 -16 -43 -29
-46 -29 -10 0 -142 -83 -149 -94 -4 -6 -8 -8 -8 -4 0 4 -48 -22 -107 -59 -60
-36 -121 -73 -138 -83 -16 -9 -48 -28 -70 -40 -22 -13 -48 -30 -58 -39 -10 -8
-23 -16 -30 -17 -24 -4 -156 -91 -149 -99 4 -5 2 -5 -5 -1 -14 8 -106 -48 -96
-58 4 -4 -1 -4 -11 0 -15 6 -17 4 -11 -6 5 -9 4 -11 -4 -6 -6 4 -36 -8 -66
-27 -44 -27 -52 -36 -42 -47 10 -12 9 -12 -5 -1 -15 12 -23 10 -50 -11 -18
-13 -46 -25 -63 -26 -16 -1 -167 -13 -334 -27 -167 -14 -388 -31 -492 -37
-103 -7 -186 -15 -183 -19 2 -4 -4 -5 -15 -2 -10 2 -187 -5 -392 -16 -809 -45
-1399 -61 -2234 -61 -346 0 -778 5 -960 10 -223 6 -331 6 -333 -1 -3 -6 -10
-5 -20 3 -13 12 -14 10 -3 -9 11 -21 8 -27 -12 -24 -5 1 -5 -3 -2 -10 4 -6 -2
-19 -14 -30 -12 -11 -21 -24 -21 -30 0 -6 -5 -7 -12 -3 -8 5 -9 2 -5 -9 3 -9
3 -16 -1 -16 -19 3 -25 -2 -12 -11 13 -8 13 -10 -2 -10 -9 0 -20 -5 -24 -12
-4 -7 -3 -8 4 -4 8 5 10 2 6 -8 -3 -9 -10 -13 -15 -10 -5 3 -9 -2 -9 -10 0 -9
-4 -16 -9 -16 -5 0 -13 -9 -16 -21 -5 -16 -9 -18 -21 -8 -12 10 -13 9 -9 -4 4
-8 2 -18 -4 -21 -6 -4 -8 -13 -5 -20 3 -8 0 -17 -7 -22 -8 -5 -10 -3 -5 7 4 8
0 5 -8 -5 -9 -11 -16 -26 -16 -34 0 -7 -4 -11 -9 -7 -5 3 -12 1 -16 -4 -9 -16
60 -20 495 -31 513 -12 1557 -13 1985 0 620 18 754 23 751 29 -2 3 71 7 163 8
265 4 903 44 1541 99 162 14 330 28 373 31 42 3 77 9 77 14 0 4 8 5 19 2 35
-9 863 82 1467 162 496 66 1318 189 1410 211 20 5 21 1 26 -105 3 -61 11 -117
17 -124 6 -8 9 -16 6 -18 -14 -15 61 -202 78 -192 6 4 7 1 3 -6 -10 -15 61
-124 75 -116 5 4 8 1 7 -6 -2 -7 2 -13 9 -14 6 0 15 -4 20 -9 5 -5 3 -6 -4 -2
-23 13 -13 -10 16 -38 18 -17 34 -25 42 -21 7 5 10 4 6 -3 -18 -28 190 -139
310 -166 78 -17 254 -21 315 -7 l37 9 3 -200 c2 -110 0 -202 -3 -204 -3 -2 -9
-763 -13 -1691 -7 -1817 -14 -2495 -27 -2487 -10 6 -122 -22 -169 -43 -19 -9
-40 -17 -46 -18 -37 -8 -53 -18 -48 -27 4 -6 2 -8 -4 -4 -13 8 -123 -44 -116
-56 3 -4 -1 -6 -8 -3 -16 6 -184 -109 -181 -124 2 -5 -3 -8 -11 -5 -17 6 -40
-22 -30 -37 4 -8 3 -9 -4 -5 -15 9 -84 -43 -75 -57 3 -5 1 -7 -4 -4 -13 8 -36
-17 -25 -28 4 -5 2 -5 -4 -2 -7 4 -17 0 -24 -8 -7 -8 -9 -15 -6 -15 4 0 -7
-14 -24 -30 -17 -17 -28 -35 -24 -42 4 -6 3 -8 -3 -5 -14 9 -76 -80 -67 -95 4
-7 3 -10 -1 -5 -16 14 -111 -154 -101 -180 3 -8 2 -12 -3 -8 -19 11 -77 -193
-88 -307 -5 -61 -8 -66 -32 -71 -14 -3 -100 -17 -191 -31 -91 -15 -187 -31
-215 -37 -27 -5 -57 -10 -65 -11 -8 0 -100 -13 -205 -29 -104 -15 -318 -46
-475 -68 -157 -22 -334 -47 -395 -56 -60 -8 -128 -17 -150 -20 -22 -2 -132
-15 -245 -29 -553 -69 -1363 -156 -1446 -156 -19 0 -34 -3 -34 -7 0 -5 -30 -8
-68 -9 -37 0 -125 -6 -197 -13 -244 -23 -803 -65 -1145 -86 -834 -52 -1754
-85 -2361 -85 -179 0 -328 -3 -331 -6 -8 -7 -368 -7 -376 0 -3 4 -148 6 -321
6 -464 -1 -1179 21 -1826 56 -396 21 -695 40 -1095 70 -41 3 -107 7 -146 9
-39 2 -82 6 -95 9 -13 3 -69 8 -124 11 -55 3 -123 9 -152 14 -29 4 -50 4 -48
0 3 -4 -2 -12 -11 -19 -8 -7 -13 -19 -10 -26 7 -17 -30 -48 -46 -38 -11 6 -11
5 0 -8 9 -11 10 -18 2 -23 -5 -3 -10 -3 -10 1 0 4 -8 0 -18 -9 -10 -10 -22
-14 -27 -10 -4 5 -5 2 -1 -5 5 -7 13 -10 20 -5 7 4 3 0 -8 -10 -10 -10 -26
-15 -34 -12 -12 4 -12 2 -3 -8 8 -11 5 -16 -15 -26 -14 -6 -30 -9 -35 -6 -5 3
-6 0 -3 -8 3 -9 -6 -19 -25 -27 -17 -7 -28 -16 -25 -21 3 -5 -2 -6 -10 -3 -9
3 -13 10 -10 15 3 5 0 9 -5 9 -15 0 -14 -13 2 -29 8 -9 8 -12 0 -7 -13 7 -65
-13 -58 -24 2 -4 -1 -8 -8 -10 -7 -2 -1838 -5 -4069 -7 l-4056 -3 -7 67 c-17
196 -54 341 -96 379 -35 31 -108 23 -224 -25 -161 -68 -198 -73 -324 -51 -58
11 -166 35 -240 54 l-133 34 -212 -73 c-400 -137 -714 -277 -787 -350 l-34
-34 -252 -1 c-196 0 -253 3 -253 13 0 48 -23 244 -36 296 -20 88 -42 129 -77
147 -40 21 -80 14 -221 -41 -174 -68 -185 -69 -356 -34 -80 16 -185 40 -235
53 l-90 23 -175 -59 c-386 -131 -742 -287 -824 -362 l-39 -36 -3863 0 -3864 0
0 998 c0 548 0 1518 0 2154 l0 1158 -915 0 -915 0 0 -2155 0 -2155 -6950 0
-6950 0 0 -155 0 -155 26885 0 26885 0 0 155 0 155 -4302 1 c-2367 1 -4290 4
-4273 6 16 3 33 10 37 16 6 9 8 9 8 -1 0 -8 11 -11 38 -7 20 3 123 14 227 25
350 37 450 51 458 66 4 8 13 14 20 14 7 0 6 -4 -3 -10 -8 -5 -11 -12 -8 -15 4
-4 12 -4 18 0 7 4 31 8 53 10 110 6 206 18 201 26 -3 5 2 6 11 3 28 -11 288
27 309 45 11 9 16 10 12 4 -4 -8 -1 -13 8 -13 9 0 16 6 16 13 0 9 3 8 9 -2 5
-7 14 -10 21 -6 6 4 34 9 63 11 127 8 644 87 666 101 13 8 20 10 17 4 -9 -14
1 -14 104 4 47 8 109 17 139 20 30 3 72 10 95 15 22 6 57 12 76 14 102 11 210
30 210 38 0 5 5 6 11 3 13 -8 353 46 357 57 2 5 8 6 13 3 5 -4 35 -1 66 5 65
12 98 18 145 25 73 10 113 18 122 23 5 2 23 6 40 7 40 3 326 54 346 61 8 3 29
7 45 10 92 12 224 38 220 44 -3 4 7 6 21 4 34 -3 144 17 144 27 0 5 6 6 13 3
7 -2 57 5 111 16 54 11 100 20 102 20 2 0 1 503 -1 1118 -6 1406 -15 4602 -15
5490 0 471 -3 672 -10 672 -6 0 -8 -6 -4 -12 6 -10 5 -10 -7 -1 -12 10 -34 9
-108 -5 -51 -10 -88 -22 -84 -26 4 -5 2 -6 -5 -2 -18 11 -190 -22 -221 -41
-16 -10 -21 -11 -16 -2 6 9 2 10 -16 6 -13 -4 -32 -7 -42 -7 -10 0 -16 -4 -12
-9 3 -6 -4 -8 -15 -6 -21 4 -183 -21 -210 -32 -8 -3 -20 -5 -25 -5 -24 4 -160
-27 -163 -37 -2 -6 -8 -11 -13 -11 -6 0 -7 4 -4 10 8 12 2 12 -55 -1 -25 -6
-61 -13 -80 -15 -19 -3 -42 -6 -50 -7 -8 -2 -57 -9 -107 -17 -51 -8 -93 -17
-93 -21 0 -3 -11 -4 -24 -2 -13 3 -27 0 -30 -6 -4 -5 -12 -8 -20 -5 -7 3 -80
-7 -162 -21 -82 -14 -162 -27 -179 -29 -83 -11 -818 -117 -870 -126 -33 -5
-91 -12 -130 -16 -38 -3 -75 -9 -81 -15 -6 -5 -13 -7 -16 -4 -3 3 -77 -4 -164
-15 -87 -12 -174 -21 -191 -20 -18 0 -33 -4 -33 -9 0 -5 -9 -7 -19 -4 -10 3
-27 1 -37 -5 -11 -5 -30 -5 -44 -1 l-25 7 23 7 c12 4 22 11 22 16 0 5 3 8 8 7
14 -5 91 45 85 55 -3 6 -1 7 5 3 13 -8 56 17 46 26 -3 3 3 5 13 5 10 -1 17 3
16 10 -2 7 3 10 11 7 7 -3 19 2 26 11 7 8 17 15 22 15 5 0 41 20 79 45 38 25
71 45 74 45 2 0 59 34 127 77 68 42 144 89 171 106 26 16 47 31 47 34 0 2 -5
1 -12 -3 -7 -4 -8 -3 -4 4 4 6 14 8 23 5 12 -5 14 -3 8 7 -6 9 -4 11 5 5 7 -4
15 -4 19 1 3 5 19 15 34 22 17 7 25 17 21 24 -4 7 -3 8 5 4 7 -4 20 2 32 16
11 13 18 16 14 8 -4 -8 0 -6 9 4 8 10 13 23 9 29 -3 6 -1 7 6 3 6 -4 8 -13 4
-19 -4 -7 4 -5 17 4 14 9 88 56 165 104 136 85 203 136 162 122 -11 -4 -16 -3
-12 4 4 5 15 7 25 4 18 -6 145 66 135 77 -3 2 1 5 8 5 22 0 147 85 140 96 -3
6 -1 7 5 3 6 -3 50 20 98 51 48 32 96 63 108 70 11 7 25 18 31 25 5 7 16 14
23 16 20 4 62 33 62 43 0 5 5 8 12 6 7 -1 12 3 13 10 0 6 4 15 9 20 5 5 6 3 2
-4 -12 -22 8 -14 44 17 19 16 41 29 48 30 6 0 12 4 12 9 0 5 10 13 22 17 26 8
169 103 180 119 4 5 11 10 15 10 5 0 57 34 117 75 60 41 123 83 140 93 17 10
36 25 43 33 6 9 15 15 20 15 4 -1 8 3 8 8 0 5 4 13 9 18 5 5 6 2 1 -6 -5 -9
-3 -12 6 -9 8 3 14 10 14 15 0 6 4 15 9 20 5 5 6 3 2 -4 -10 -17 0 -16 30 4
16 10 21 19 14 23 -8 5 -6 9 5 13 9 4 13 3 10 -3 -11 -18 9 -10 39 15 27 21
28 26 15 42 -13 17 -13 17 8 0 16 -14 23 -15 29 -6 5 8 3 10 -6 4 -9 -6 -11
-4 -6 4 5 7 14 10 22 7 7 -3 18 3 23 12 6 9 11 13 11 9 0 -4 20 6 45 23 26 18
43 36 39 42 -4 7 -2 8 4 4 14 -8 94 43 86 55 -3 5 1 6 9 3 8 -3 18 0 23 7 5 8
3 10 -6 4 -9 -6 -11 -4 -6 4 5 7 10 10 13 7 10 -10 44 15 37 26 -4 7 -2 8 5 4
7 -5 39 12 79 41 37 26 93 66 124 87 50 34 56 41 45 55 -11 14 -10 15 7 1 16
-12 20 -12 30 0 6 8 24 21 39 29 15 8 44 31 65 50 20 20 32 29 27 21 -8 -13
-7 -13 11 0 10 8 23 21 27 28 4 6 13 12 19 12 6 0 56 33 111 73 55 39 111 79
126 88 14 9 25 22 23 29 -1 6 2 9 8 5 17 -10 34 6 19 17 -11 8 -10 9 3 5 16
-5 74 31 90 55 4 7 8 9 8 5 0 -9 101 63 143 101 15 14 27 22 27 18 0 -5 7 -3
15 4 8 7 12 17 8 23 -3 6 -1 7 5 3 7 -4 24 5 39 21 14 15 22 21 18 13 -8 -13
-6 -13 8 -1 9 7 14 18 10 24 -3 6 -1 7 5 3 17 -11 85 44 73 58 -7 8 -4 12 9
12 10 0 16 -4 13 -9 -3 -6 8 1 26 14 17 12 31 27 31 33 0 5 3 7 6 3 4 -3 22 5
40 20 26 19 33 31 30 49 -3 13 0 26 5 30 5 3 8 0 7 -7 -4 -17 28 -23 44 -9 7
6 49 38 93 71 44 33 79 65 77 70 -1 6 2 8 8 4 14 -9 42 14 33 28 -3 6 -1 7 5
3 13 -8 84 42 77 54 -3 4 3 7 13 6 9 0 16 5 14 12 -1 8 1 11 6 8 12 -7 54 23
47 34 -3 4 3 14 13 21 15 13 16 12 3 -3 -23 -30 -2 -20 53 23 28 23 50 46 48
51 -1 5 2 7 8 3 14 -9 42 14 33 28 -3 6 -1 7 5 3 12 -7 96 52 124 87 9 12 14
26 11 31 -3 5 -1 6 6 2 6 -4 14 -1 17 7 2 7 11 14 20 14 8 0 1 -12 -18 -29
-18 -17 -5 -8 30 19 34 26 75 57 89 68 134 99 208 160 208 171 0 7 4 16 9 21
5 4 6 3 2 -4 -21 -37 54 14 157 107 28 25 47 38 42 30 -4 -8 5 -4 21 10 68 58
93 84 88 91 -3 5 2 6 11 3 18 -7 68 33 59 47 -3 5 1 7 8 4 7 -2 27 8 43 23 17
15 24 23 15 17 -13 -9 -13 -8 -2 7 8 10 20 14 29 11 12 -5 15 -2 10 10 -3 9 1
21 11 29 15 12 16 11 3 -4 -7 -10 -9 -18 -3 -18 5 0 17 11 26 25 9 14 21 23
25 20 10 -6 83 51 120 93 13 15 20 20 15 12 -4 -8 44 28 107 79 63 51 113 98
111 105 -2 6 0 8 3 4 11 -11 47 11 39 24 -4 6 -3 8 3 5 14 -9 72 45 69 65 -1
9 -8 23 -14 31 -9 10 -10 17 -2 22 5 3 11 4 11 1 3 -12 7 -26 9 -33 1 -5 2
-11 1 -15 0 -5 6 -8 14 -8 14 0 14 4 -1 32 -9 17 -30 45 -48 61 -17 17 -22 24
-12 16 18 -13 19 -13 7 9 -7 12 -17 20 -23 16 -6 -4 -8 -3 -4 4 9 14 -33 84
-47 75 -6 -3 -7 -1 -3 5 9 15 -12 54 -25 47 -5 -4 -9 3 -9 15 0 12 -4 18 -11
15 -6 -4 -9 -1 -7 7 4 18 -84 158 -95 151 -6 -3 -7 -1 -3 5 4 7 -4 28 -17 48
-14 19 -27 32 -29 27 -3 -4 -3 -2 -1 5 4 19 -27 63 -40 55 -6 -3 -7 -1 -3 5 4
6 -12 42 -35 79 -37 59 -77 115 -54 74 5 -10 4 -12 -4 -7 -6 4 -9 11 -6 16 8
13 -36 81 -48 73 -6 -4 -7 -1 -2 6 4 8 -4 25 -21 43 -16 17 -22 28 -14 24 8
-4 7 -1 -3 7 -10 9 -18 18 -17 21 2 17 -32 66 -42 60 -7 -4 -8 -3 -4 4 4 7 4
17 0 23 -5 8 -9 8 -14 -1 -5 -8 -9 -7 -13 5 -4 9 -3 13 3 10 19 -12 10 8 -51
106 -34 54 -66 96 -72 92 -6 -4 -7 -1 -3 6 5 7 2 20 -6 29 -8 9 -20 29 -27 43
-7 15 -23 37 -34 51 -12 13 -23 30 -25 38 -2 8 -8 20 -14 25 -8 7 -8 6 -3 -4
5 -10 4 -12 -4 -7 -6 4 -9 11 -6 16 8 13 -25 61 -36 54 -5 -3 -6 1 -3 9 3 8 0
18 -5 22 -6 3 -18 22 -26 41 -8 20 -19 33 -24 30 -5 -3 -8 2 -7 12 0 9 -4 16
-10 15 -7 -1 -11 5 -10 15 0 9 -5 16 -12 14 -8 -1 -11 2 -8 7 7 11 -28 74 -36
66 -2 -3 -5 1 -5 9 0 17 -42 86 -52 86 -4 0 -8 6 -8 13 0 19 -64 110 -71 102
-4 -3 0 -11 8 -16 13 -9 13 -10 0 -6 -9 2 -15 15 -15 33 0 19 -5 29 -15 29 -8
0 -14 -6 -12 -13 1 -8 -2 -11 -8 -7 -8 5 -7 12 4 24 13 14 11 22 -20 71 -19
30 -39 54 -43 53 -5 -1 -8 5 -7 15 0 9 -5 16 -12 14 -8 -1 -11 2 -7 7 6 11
-52 111 -64 111 -4 0 -8 6 -8 13 0 9 -81 145 -98 165 -2 2 -11 5 -21 6 -10 2
-20 9 -22 17 -2 8 0 10 5 4 4 -5 14 -11 20 -12 7 -2 -4 23 -24 55 -45 72 -63
93 -74 86 -5 -3 -6 2 -3 10 7 17 -96 187 -108 180 -4 -3 -5 1 -3 9 3 7 -3 22
-15 32 -11 10 -20 22 -20 28 0 5 -59 104 -132 219 -94 150 -134 205 -141 196
-6 -9 -7 -8 -3 5 4 11 -15 51 -51 110 -31 51 -59 94 -62 97 -3 3 -12 17 -20
33 -8 15 -18 27 -23 27 -12 0 -10 -14 5 -30 10 -12 9 -12 -5 -1 -17 12 -22 54
-5 44 5 -3 -3 13 -18 36 -15 22 -32 38 -38 34 -6 -3 -7 -1 -3 5 9 16 -43 104
-56 95 -7 -3 -8 -1 -4 5 7 12 -13 52 -27 52 -4 0 -5 -5 -1 -12 4 -7 3 -8 -4
-4 -6 4 -9 13 -6 21 7 17 -14 57 -26 50 -5 -3 -12 0 -16 6 -5 8 -3 9 6 4 17
-11 13 -2 -49 98 -45 73 -56 85 -65 71 -10 -13 -12 -13 -12 5 0 11 4 17 8 15
12 -8 9 9 -6 28 -7 10 -17 14 -21 10 -5 -4 -5 -2 -1 5 9 17 -24 65 -40 59 -7
-3 -16 0 -20 6 -4 6 -3 8 4 4 25 -15 20 16 -7 40 -19 16 -27 32 -24 42 5 11 3
13 -7 7 -9 -5 -11 -4 -6 3 8 14 -23 64 -35 56 -5 -3 -6 3 -2 12 5 13 3 15 -7
9 -9 -6 -11 -4 -5 5 4 7 2 16 -6 21 -8 4 -14 14 -14 21 -1 7 -6 12 -12 11 -7
-2 -11 5 -11 15 2 23 -97 174 -107 164 -5 -4 -5 -2 -2 5 4 6 -9 34 -28 63 -19
29 -35 55 -35 58 0 3 -10 19 -23 36 -12 17 -49 75 -81 129 -32 53 -66 102 -75
107 -9 5 -12 10 -7 10 5 0 -1 12 -15 27 -13 14 -18 23 -11 19 8 -5 3 8 -9 27
-13 19 -27 33 -32 30 -4 -2 -7 -1 -6 4 3 20 -2 34 -11 28 -5 -3 -7 0 -5 7 3 8
-9 29 -27 48 -18 18 -26 30 -18 25 11 -7 10 -2 -4 20 -10 15 -27 43 -38 62
-11 18 -24 30 -29 27 -5 -3 -6 1 -3 9 3 8 0 18 -7 23 -8 5 -10 3 -4 -6 5 -8 4
-11 -3 -6 -6 4 -8 14 -5 23 5 12 3 14 -7 8 -9 -5 -11 -4 -6 4 9 14 -28 63 -39
53 -5 -4 -5 -1 -1 6 7 11 -26 68 -49 84 -5 4 -7 8 -3 8 12 0 -52 100 -63 100
-6 0 -8 4 -5 9 3 5 -1 14 -9 21 -8 7 -15 18 -15 26 0 22 -21 27 -37 8 -13 -17
-13 -16 0 7 14 24 14 29 1 45 -9 11 -12 13 -8 5 4 -9 3 -12 -4 -7 -6 4 -9 13
-6 20 7 18 -16 32 -26 16 -5 -8 -9 -7 -14 6 -3 9 -4 19 -1 22 3 3 5 0 5 -7 0
-7 4 -10 9 -6 10 6 -25 75 -38 75 -4 0 -8 6 -8 13 0 19 -76 126 -85 121 -4 -3
-5 3 -1 12 4 12 3 15 -5 10 -8 -4 -10 -2 -6 7 9 24 -33 43 -49 22 -5 -6 -7 -4
-4 5 2 8 10 14 16 12 6 -1 11 2 11 7 0 16 -111 186 -120 184 -5 -2 -7 3 -4 11
3 7 -2 19 -11 26 -8 7 -15 18 -15 25 0 8 -15 28 -32 46 -18 18 -27 29 -20 25
19 -12 -36 75 -62 97 -11 10 -14 15 -6 11 11 -6 10 -1 -4 21 -10 15 -27 43
-38 62 -11 18 -22 33 -25 33 -2 0 -1 -5 3 -12 4 -7 3 -8 -5 -4 -6 4 -9 11 -6
16 3 5 -6 28 -21 51 -17 28 -29 38 -34 30 -5 -9 -9 -8 -13 4 -5 11 -3 14 5 9
8 -5 9 -1 4 12 -13 35 -50 83 -60 77 -5 -3 -6 -1 -2 6 6 9 -43 100 -82 151 -1
2 -7 -2 -12 -10 -7 -11 -9 -7 -7 15 2 23 -2 30 -16 29 -13 -2 -15 1 -7 11 8 9
6 14 -6 19 -9 3 -21 3 -26 -1 -7 -4 -8 -1 -4 6 5 7 15 10 25 6 12 -5 13 -3 4
6 -9 9 -22 2 -57 -27 -25 -21 -46 -40 -46 -43 0 -3 5 0 12 7 7 7 17 12 22 12
13 -1 -25 -24 -39 -25 -20 0 -145 -107 -138 -117 4 -7 1 -8 -6 -4 -15 10 -53
-23 -44 -37 3 -6 1 -7 -6 -3 -13 8 -78 -42 -73 -56 1 -5 -2 -7 -8 -3 -5 3 -10
2 -10 -2 0 -5 -10 -13 -22 -18 -13 -6 -22 -17 -20 -24 1 -7 -2 -9 -8 -6 -14 9
-62 -34 -53 -48 3 -6 1 -7 -5 -3 -12 7 -197 -131 -267 -198 -22 -22 -46 -40
-53 -40 -7 -1 -17 -8 -22 -16 -5 -8 -11 -12 -15 -9 -3 3 13 54 35 112 22 59
37 114 34 124 -4 14 -3 15 4 5 7 -11 11 -8 16 13 4 14 4 31 0 37 -4 6 -3 8 3
5 13 -8 64 128 56 150 -4 10 -2 14 3 10 13 -8 38 59 28 74 -4 8 -3 9 4 5 11
-6 15 5 11 30 0 4 3 10 9 13 14 9 33 72 25 85 -3 6 -2 7 2 3 8 -7 74 164 78
203 1 8 8 21 15 28 6 7 12 20 12 28 0 24 1 29 12 42 6 6 7 12 3 12 -4 0 -2 6
4 14 17 21 51 127 44 139 -3 5 -2 7 4 4 12 -7 67 159 57 175 -4 6 -3 8 4 4 13
-8 26 29 16 45 -5 8 -3 9 5 5 8 -5 11 -3 10 5 -2 8 2 23 8 34 6 11 39 101 73
200 53 154 60 182 49 200 -11 17 -10 18 3 8 12 -11 19 -1 42 67 15 43 24 84
20 91 -4 8 -3 9 4 5 8 -4 12 0 12 12 0 14 -29 36 -106 81 -58 33 -111 58 -116
54 -6 -3 -8 -1 -4 5 8 13 -25 24 -50 16 -13 -4 -15 -3 -6 3 10 8 10 12 -2 22
-8 7 -21 9 -27 5 -7 -4 -9 -3 -6 3 7 10 -20 28 -35 25 -5 -1 -8 2 -8 6 0 7
-43 33 -60 37 -3 0 -24 13 -47 29 -24 16 -47 25 -54 20 -7 -4 -10 -3 -6 3 7
10 -230 149 -250 147 -7 -1 -11 1 -9 5 2 3 -18 19 -46 34 -27 15 -47 22 -43
15 3 -7 -1 -4 -10 7 -9 11 -21 19 -26 17 -5 -1 -9 3 -9 9 0 6 -7 8 -16 5 -8
-3 -13 -2 -10 2 3 4 -4 14 -16 21 -16 10 -19 10 -12 -1 4 -7 -6 -1 -22 13 -40
36 -162 101 -174 94 -6 -4 -9 -1 -8 7 2 7 -5 12 -15 12 -10 -1 -16 1 -13 4 10
9 -124 83 -136 76 -7 -5 -8 -2 -3 6 6 10 4 12 -11 6 -10 -4 -15 -4 -11 0 8 8
-64 55 -74 48 -4 -2 -10 3 -13 12 -6 15 -8 15 -31 0 -34 -22 -42 -20 -14 4 19
16 20 19 5 13 -12 -4 -17 -3 -13 4 6 9 -10 22 -33 27 -3 1 -25 14 -50 30 -25
15 -55 35 -68 43 -12 7 -28 11 -35 7 -7 -4 -9 -4 -5 1 5 5 -1 13 -12 19 -10 6
-65 38 -122 71 -57 33 -107 62 -113 64 -5 2 -22 12 -37 23 -16 11 -32 17 -37
13 -6 -3 -14 3 -20 12 -6 10 -11 14 -11 10 0 -4 -10 1 -22 12 -11 11 -24 18
-28 16 -4 -3 -13 2 -21 11 -18 22 -54 40 -44 22 3 -7 1 -6 -7 3 -23 27 -67 51
-79 43 -7 -4 -9 -3 -6 3 8 13 -50 46 -66 37 -6 -4 -9 -4 -5 1 8 8 -41 40 -152
102 -30 16 -71 39 -90 51 -32 20 -36 20 -60 5 l-25 -16 20 23 c17 20 18 23 3
17 -10 -3 -17 -3 -15 1 1 4 -1 7 -5 7 -3 0 -18 11 -31 24 -16 14 -31 20 -39
15 -7 -4 -10 -4 -6 1 10 11 -121 87 -136 78 -6 -3 -8 -3 -4 2 10 10 -159 108
-173 100 -5 -4 -8 -2 -7 4 2 6 -7 17 -19 24 -96 55 -138 77 -148 77 -7 0 -20
9 -30 20 -10 12 -25 18 -32 15 -8 -2 -11 -1 -8 4 6 10 -33 27 -50 22 -5 -1 -7
1 -2 5 10 10 -72 56 -86 47 -7 -3 -9 -2 -4 2 6 7 -63 54 -87 58 -5 1 -17 10
-27 19 -11 10 -26 15 -35 11 -13 -5 -15 -3 -9 7 6 10 4 12 -9 7 -9 -4 -15 -3
-12 2 7 11 -72 53 -85 45 -5 -3 -8 -1 -7 5 2 6 -17 23 -41 37 -24 15 -40 21
-36 14 5 -8 -10 1 -32 19 -25 20 -46 30 -54 26 -7 -5 -10 -4 -6 2 8 12 -101
75 -115 66 -7 -4 -8 -1 -3 7 6 10 4 12 -9 7 -9 -4 -15 -3 -12 2 7 11 -22 23
-36 14 -6 -3 -8 -1 -5 4 8 13 -111 86 -125 77 -7 -4 -8 -2 -4 4 4 7 1 12 -7
12 -8 0 -20 7 -27 15 -7 9 -19 14 -27 11 -9 -4 -11 -1 -7 6 5 7 0 9 -14 6 -12
-4 -20 -3 -17 2 10 16 -110 84 -128 74 -7 -4 -9 -4 -5 1 10 10 -101 77 -115
68 -5 -3 -7 -2 -4 4 3 5 -13 20 -36 31 -23 12 -58 32 -76 44 -23 15 -32 17
-27 8 5 -10 2 -9 -6 2 -22 25 -118 79 -130 72 -6 -4 -8 -2 -4 4 6 10 -30 28
-47 24 -5 -1 -6 2 -2 8 3 5 1 10 -4 10 -6 0 -13 0 -16 0 -3 0 -14 9 -26 21
-12 12 -27 18 -39 14 -10 -3 -21 -1 -25 4 -4 7 1 8 12 5 10 -4 -28 21 -85 55
-57 34 -106 61 -108 61 -3 0 -21 11 -41 25 -30 20 -40 22 -52 12 -12 -10 -13
-9 -7 1 11 19 -24 44 -42 30 -9 -8 -11 -7 -7 3 6 17 -51 52 -68 42 -7 -3 -9
-2 -5 2 5 5 -9 19 -30 31 -45 28 -59 30 -41 7 13 -16 12 -17 -3 -4 -10 7 -15
17 -13 22 8 11 -53 41 -67 33 -6 -4 -8 -3 -5 3 8 12 -120 86 -135 77 -7 -5 -8
-3 -3 6 6 10 4 12 -9 7 -10 -4 -15 -3 -11 3 3 6 -2 13 -12 17 -10 3 -30 15
-45 25 -16 11 -34 16 -40 12 -7 -4 -10 -4 -6 1 8 9 -17 26 -105 73 -29 16 -64
36 -79 46 -15 10 -33 14 -39 10 -8 -4 -9 -3 -5 4 8 14 -50 46 -66 36 -6 -4 -8
-3 -5 3 3 5 -44 38 -106 73 -62 35 -123 71 -137 79 -13 9 -21 11 -18 5 4 -6 1
-11 -6 -11 -8 0 -12 6 -9 13 2 7 -5 17 -16 24 -12 6 -21 7 -21 3 0 -4 -4 -3
-8 3 -12 17 -79 54 -85 47 -4 -3 -7 -1 -7 5 0 7 -5 12 -11 12 -5 0 -7 -4 -4
-10 3 -6 -1 -7 -10 -3 -12 4 -13 8 -4 13 8 6 6 11 -8 19 -11 5 -23 7 -27 4 -3
-3 -6 -1 -6 5 0 16 -58 44 -72 36 -7 -4 -8 -3 -4 4 8 14 -30 36 -46 26 -7 -5
-8 -3 -3 6 6 10 4 12 -9 7 -9 -4 -15 -3 -12 2 8 12 -122 83 -136 75 -7 -4 -8
-2 -4 4 10 17 -48 44 -63 29 -10 -9 -11 -9 -6 3 6 18 -31 45 -40 30 -3 -6 -12
-10 -18 -10 -7 0 -6 4 3 10 13 8 12 11 -5 24 -11 9 -26 13 -33 11 -8 -3 -10 0
-6 7 5 8 2 9 -9 5 -9 -3 -19 -1 -23 5 -4 7 -3 8 4 4 7 -4 12 -5 12 -2 0 12
-59 36 -65 26 -3 -6 -12 -10 -18 -9 -9 0 -9 2 1 6 6 2 12 9 12 14 0 13 -79 51
-92 43 -6 -4 -8 -3 -5 4 6 9 -84 68 -114 74 -7 2 -21 11 -31 21 -10 10 -23 15
-28 12 -6 -4 -10 -1 -10 5 0 7 -7 9 -16 6 -8 -3 -12 -2 -9 4 6 9 -28 32 -42
28 -4 -2 -18 7 -31 20 -18 18 -27 21 -37 12 -10 -8 -15 -8 -21 1 -4 8 -3 9 4
5 7 -4 12 -3 12 1 0 14 -40 34 -52 27 -7 -4 -8 -3 -4 4 4 7 1 12 -9 12 -9 0
-14 -4 -11 -9z"/>
<path d="M14633 27736 c-74 -24 -151 -85 -203 -163 -15 -22 -16 -23 -64 -8
-27 8 -61 15 -76 15 -52 0 -127 -30 -171 -68 -41 -37 -49 -39 -125 -44 -58 -4
-94 -13 -130 -31 -97 -49 -176 -165 -213 -314 -17 -66 -17 -66 -62 -77 -70
-18 -115 -51 -141 -104 -20 -41 -23 -62 -23 -168 l0 -122 40 -79 41 -78 -23
-33 c-56 -84 -52 -230 10 -333 24 -40 45 -60 88 -83 l55 -30 18 -80 c24 -109
77 -220 126 -267 51 -49 118 -69 231 -69 l87 0 12 -30 c22 -54 128 -125 158
-106 5 3 12 49 14 103 l6 98 -43 85 c-23 47 -51 111 -61 143 -17 55 -19 57
-51 57 -85 0 -163 93 -163 194 0 87 60 177 130 196 36 10 37 11 43 68 32 293
221 589 451 703 l81 40 50 -22 c53 -24 141 -31 205 -16 l35 8 33 -68 c58 -120
179 -242 303 -307 55 -29 56 -31 47 -59 -27 -76 13 -175 88 -219 20 -11 37
-31 41 -47 4 -14 7 -127 7 -251 0 -247 -12 -333 -73 -515 -16 -47 -25 -85 -21
-85 19 0 152 105 194 152 57 65 110 165 126 239 12 55 9 221 -5 264 -4 15 3
32 26 60 76 95 104 209 74 311 -9 32 -23 68 -30 80 -12 19 -10 22 27 45 83 51
121 128 121 244 0 170 -109 346 -288 468 -59 41 -205 107 -236 107 -9 0 -65
16 -124 36 -74 24 -134 37 -193 41 -74 5 -92 10 -122 33 -58 44 -102 67 -159
84 -65 19 -111 19 -168 2z"/>
<path d="M26460 27282 c-219 -146 -221 -149 -170 -239 43 -75 153 -240 254
-378 62 -86 98 -150 163 -295 47 -101 82 -192 80 -202 -3 -10 2 -22 11 -27 9
-5 13 -13 9 -17 -4 -4 -13 -2 -19 4 -15 15 -28 16 -28 2 0 -5 5 -9 11 -7 6 1
14 -4 16 -11 4 -9 -3 -11 -22 -8 -17 3 -33 -2 -46 -15 -10 -10 -21 -19 -24
-19 -3 0 -8 0 -11 0 -4 0 -1 -6 5 -14 9 -11 7 -15 -11 -21 -13 -4 -27 -6 -32
-6 -5 1 -4 -5 4 -13 14 -17 21 -20 19 -8 -4 21 3 23 23 6 12 -10 18 -14 15 -7
-4 6 -3 15 3 18 8 5 8 11 1 19 -15 18 23 56 51 51 12 -3 28 1 35 7 7 6 15 9
17 7 2 -2 22 -44 44 -94 30 -66 38 -93 30 -102 -6 -8 -8 -16 -4 -20 3 -3 6 -1
6 5 0 22 18 12 24 -13 7 -28 5 -41 -7 -37 -5 1 -6 -2 -2 -8 3 -6 11 -8 16 -5
7 5 43 -41 51 -68 2 -4 206 51 455 123 249 71 455 130 459 130 11 0 -4 59 -32
120 -23 52 -31 61 -77 80 -28 12 -77 25 -109 28 -55 5 -73 14 -45 25 9 4 9 6
0 6 -6 1 -15 -3 -18 -9 -3 -5 -24 -10 -46 -10 -21 0 -39 5 -39 10 0 6 -5 10
-11 10 -5 0 -7 -4 -4 -10 3 -5 -1 -10 -10 -10 -9 0 -15 7 -13 16 2 9 -6 22
-18 30 -18 12 -21 12 -21 0 0 -8 6 -12 15 -8 11 4 13 1 7 -8 -6 -9 -4 -11 5
-5 9 5 11 4 6 -3 -12 -20 -56 11 -146 105 -161 166 -381 452 -674 876 -37 53
-70 97 -74 97 -4 -1 -59 -35 -122 -78z"/>
<path d="M30148 27101 c-7 -2 -42 -21 -78 -41 -133 -77 -307 -160 -360 -171
-50 -11 -333 -8 -395 4 -11 2 -14 2 -7 0 13 -5 12 -69 -4 -360 -5 -89 -4 -113
7 -113 7 0 114 27 237 61 124 33 237 62 251 64 14 2 47 11 74 19 26 8 47 13
47 11 0 -2 16 3 35 11 44 18 58 18 25 -1 -14 -8 -20 -14 -15 -15 6 0 23 9 39
19 16 11 35 17 42 14 8 -3 14 0 14 7 0 7 7 10 15 7 8 -4 17 -1 21 4 3 6 15 9
25 6 12 -3 17 -1 13 5 -4 6 -1 9 7 6 8 -3 29 1 47 9 18 7 37 11 42 8 6 -4 10
-1 10 4 0 6 8 11 18 11 10 0 56 11 102 25 96 29 93 28 85 15 -3 -6 1 -7 9 -4
9 3 16 10 16 15 0 5 3 8 8 7 4 0 14 2 22 5 8 4 26 8 40 10 14 2 32 7 41 11 9
4 27 8 41 10 13 1 28 5 34 9 24 14 168 47 188 42 11 -2 14 -2 6 2 -9 4 2 11
30 19 54 17 70 17 50 3 -12 -9 -12 -10 3 -5 10 3 21 6 23 6 3 0 2 5 -1 10 -4
6 -3 10 2 8 4 -1 35 6 67 16 32 9 72 18 87 18 16 1 29 5 29 11 0 5 11 6 24 3
14 -3 28 -2 31 4 4 6 -1 7 -11 3 -11 -4 -15 -3 -10 5 11 18 -20 79 -43 87 -12
3 -19 10 -17 14 3 4 -3 7 -12 8 -9 1 -35 6 -57 12 -47 12 -191 30 -277 35 -37
2 -64 9 -69 17 -7 11 -9 11 -9 1 0 -10 -29 -11 -142 -6 -79 3 -164 6 -190 7
-27 0 -48 3 -48 6 0 7 -142 8 -162 2z"/>
<path d="M34690 22129 c-181 -36 -338 -195 -348 -354 -7 -99 35 -163 126 -193
85 -29 222 -149 337 -297 l65 -83 0 -67 c0 -37 -12 -135 -26 -219 -24 -138
-27 -218 -9 -247 4 -5 23 2 43 16 54 37 112 35 146 -5 65 -78 26 -258 -74
-341 -117 -95 -172 -171 -235 -320 l-24 -56 20 -124 c11 -68 21 -128 22 -133
2 -5 16 17 32 49 61 125 204 229 403 294 179 59 292 130 420 266 90 95 157
214 189 335 23 87 23 261 0 356 -61 258 -171 440 -318 530 -47 28 -65 47 -86
87 -74 147 -225 319 -367 416 -121 83 -216 110 -316 90z"/>
<path d="M46616 21469 c-41 -33 -74 -90 -98 -176 -21 -70 -23 -99 -23 -288 1
-173 4 -230 22 -325 61 -320 184 -583 307 -659 99 -62 191 10 239 187 18 66
21 105 21 277 0 214 -10 295 -61 490 -47 179 -128 357 -201 437 -68 75 -153
98 -206 57z"/>
<path d="M20150 20140 c-110 -14 -190 -39 -305 -95 -247 -121 -453 -330 -546
-553 -61 -147 -75 -222 -135 -737 -42 -359 -139 -663 -299 -940 -129 -223
-251 -382 -531 -691 -331 -366 -485 -594 -572 -849 -128 -371 -51 -648 250
-898 82 -68 240 -175 371 -251 117 -67 218 -119 223 -114 3 4 120 787 126 847
l3 35 -62 15 c-34 9 -64 18 -67 21 -7 8 76 394 134 616 197 763 409 1184 595
1184 24 0 77 4 117 9 126 17 233 21 545 21 l303 0 -6 48 c-12 98 -55 398 -61
420 -3 15 -21 30 -52 44 -85 39 -181 107 -253 179 -65 65 -73 70 -95 60 -90
-41 -220 34 -276 158 -25 54 -29 155 -9 193 19 36 63 58 115 58 56 0 82 20
142 110 58 87 114 222 160 382 36 123 95 394 95 435 0 18 10 25 58 39 74 23
239 30 311 14 173 -38 313 -157 439 -373 l45 -78 22 21 c11 11 35 23 53 26
120 24 175 -222 83 -368 -28 -45 -28 -45 -15 -114 47 -241 -26 -512 -177 -662
l-43 -43 12 -207 c11 -190 27 -340 36 -350 2 -2 21 1 42 7 69 18 236 32 308
26 173 -15 270 -49 379 -137 l38 -30 -5 34 c-4 18 -18 112 -32 208 -29 198
-88 532 -134 755 -75 364 -137 549 -277 830 -189 379 -447 608 -766 679 -83
19 -208 26 -287 16z"/>
<path d="M16505 19734 c-108 -45 -387 -135 -569 -185 -170 -47 -463 -109 -513
-109 -13 0 -23 -6 -23 -12 0 -7 -7 -186 -15 -398 -13 -369 -13 -391 6 -515 23
-159 134 -1022 225 -1752 l67 -541 -128 -254 c-70 -139 -131 -257 -135 -263
-4 -5 -80 -154 -170 -330 -89 -176 -186 -365 -215 -420 -29 -55 -92 -176 -140
-270 -48 -93 -111 -215 -140 -270 -29 -55 -103 -197 -165 -315 -62 -118 -132
-251 -155 -295 -23 -44 -68 -127 -98 -185 l-56 -105 93 -105 c105 -119 209
-210 347 -306 99 -69 272 -174 286 -174 18 0 458 568 629 811 663 944 1235
1892 1355 2244 l24 70 -1 660 c0 763 -20 1300 -69 1895 -36 430 -113 1010
-134 1010 -3 0 -37 -6 -74 -14 -38 -8 -75 -12 -82 -10 -7 3 -23 41 -36 85 -26
90 -25 89 -114 53z"/>
<path d="M10155 16222 c-33 -21 -73 -62 -60 -62 4 0 0 -9 -9 -19 -10 -11 -15
-25 -11 -30 3 -6 -1 -14 -9 -17 -8 -3 -18 -16 -22 -27 -4 -12 -17 -45 -30 -72
-50 -111 -63 -152 -51 -164 8 -8 8 -14 -2 -23 -10 -11 -11 -9 -5 7 5 14 4 17
-3 10 -17 -16 -75 -196 -69 -212 3 -8 2 -12 -3 -9 -12 8 -23 -37 -15 -61 4
-13 3 -15 -4 -4 -7 10 -13 -1 -23 -40 -7 -30 -14 -56 -14 -59 -1 -3 -7 -18
-14 -34 -6 -16 -10 -35 -7 -42 3 -7 1 -14 -3 -16 -7 -3 -55 -165 -65 -218 -2
-14 -7 -32 -10 -40 -3 -8 -8 -28 -10 -43 -3 -16 -10 -43 -15 -60 -17 -54 -63
-298 -66 -355 -2 -29 -6 -56 -9 -60 -11 -10 -6 -63 8 -90 19 -36 52 -66 65
-57 6 3 11 2 11 -4 0 -5 8 -8 18 -7 9 2 20 -2 24 -8 5 -8 8 -7 8 2 0 7 4 10
10 7 20 -12 169 85 162 106 -1 5 4 8 10 7 7 -2 12 3 10 10 -1 8 2 11 7 7 14
-8 53 33 45 47 -5 7 -3 8 5 3 15 -9 104 78 93 91 -4 4 -2 4 4 1 14 -8 68 48
60 62 -4 6 -1 9 7 5 8 -3 17 2 20 10 4 11 1 14 -11 10 -9 -2 -6 1 8 8 13 7 38
26 56 43 52 49 165 195 160 204 -3 5 2 15 12 22 15 13 16 12 3 -3 -7 -10 -11
-18 -8 -18 12 0 87 112 81 122 -4 7 -3 8 4 4 7 -4 22 10 36 33 14 22 29 42 35
45 5 3 8 17 7 31 -2 13 1 22 5 19 5 -3 10 7 10 23 2 46 6 66 18 96 6 15 10 31
9 35 -1 4 4 20 10 35 7 16 12 33 12 39 0 30 69 197 143 345 30 61 30 63 12 83
-10 11 -25 18 -32 16 -7 -3 -12 0 -10 7 1 7 -6 11 -15 11 -10 -1 -14 4 -11 11
2 8 -6 19 -19 26 -13 6 -25 15 -28 19 -3 4 -44 33 -93 64 -96 63 -232 130
-246 121 -5 -3 -11 0 -13 5 -2 6 -35 13 -73 16 -58 4 -75 2 -100 -14z"/>
<path d="M19452 15233 c-45 -224 -82 -414 -82 -420 0 -10 31 -13 120 -13 l120
0 -5 53 c-12 120 -25 286 -40 507 -10 129 -20 245 -24 258 -4 15 -35 -117 -89
-385z"/>
<path d="M21841 14008 c-32 -227 -83 -535 -91 -555 -20 -49 -178 -54 -385 -12
-381 76 -1107 342 -1473 540 -41 21 -75 39 -77 39 -9 0 -245 -418 -277 -492
-176 -409 -165 -872 32 -1273 172 -352 457 -612 829 -756 182 -71 718 -218
1816 -499 902 -231 1264 -328 1307 -351 22 -12 33 -54 58 -220 77 -529 201
-1729 245 -2384 24 -356 22 -344 53 -357 57 -22 217 -58 329 -75 84 -12 185
-17 353 -17 251 -1 306 5 314 32 3 9 12 109 20 222 68 922 63 2486 -9 3340 -9
97 -20 202 -25 235 -17 105 -22 99 73 92 133 -11 146 -15 166 -56 48 -95 289
-842 448 -1386 150 -517 259 -902 314 -1110 82 -313 75 -298 129 -308 25 -5
119 -9 210 -9 179 -1 337 17 532 58 66 14 127 23 135 20 8 -3 11 -1 8 4 -3 6
2 11 12 12 10 1 25 2 33 3 28 2 61 26 53 38 -9 14 -32 235 -29 277 1 16 -1 30
-5 30 -13 0 -19 93 -7 108 9 11 9 14 1 9 -11 -7 -20 21 -22 63 -1 8 -4 38 -7
65 -4 28 -7 66 -7 85 0 19 -3 37 -7 40 -11 8 -29 143 -23 173 3 16 1 27 -5 27
-6 0 -11 8 -11 18 0 28 -10 89 -36 235 -13 76 -27 157 -29 180 -3 23 -15 92
-26 152 -12 61 -23 124 -25 140 -5 31 -14 77 -40 200 -8 39 -16 86 -19 105 -2
19 -6 42 -9 50 -13 37 -15 60 -4 53 8 -4 7 -1 -1 9 -7 8 -16 39 -22 69 -5 30
-12 68 -16 84 -22 109 -26 132 -29 150 -1 11 -5 27 -9 36 -4 9 -8 27 -10 40
-2 13 -6 31 -10 40 -4 9 -6 20 -5 25 1 5 0 16 -4 24 -3 8 -8 26 -10 40 -3 14
-12 61 -22 105 -9 44 -18 89 -20 100 -2 11 -6 28 -10 38 -5 11 -2 17 6 17 11
1 10 4 -2 13 -17 13 -53 152 -44 168 4 5 2 9 -3 9 -6 0 -12 15 -15 33 -4 29
-85 347 -121 475 -8 28 -12 52 -9 52 3 0 -1 7 -8 17 -11 13 -11 17 -1 20 7 3
11 20 11 41 l-2 37 -7 -35 c-4 -22 -9 -29 -13 -20 -13 34 -47 131 -47 135 0
14 18 2 28 -17 6 -13 11 -17 11 -10 1 7 -10 23 -24 36 -13 12 -29 36 -35 52
-9 27 -9 28 5 10 17 -23 20 -14 4 15 -5 11 -14 17 -20 14 -5 -4 -9 2 -9 12 0
10 -7 29 -16 41 -13 19 -14 26 -2 40 12 15 11 16 -4 4 -10 -8 -19 -9 -22 -3
-6 9 -145 104 -156 107 -30 6 -60 26 -54 36 5 8 2 9 -11 5 -9 -4 -23 -3 -29 2
-6 4 -28 14 -49 21 -24 7 -35 16 -30 23 12 19 13 46 3 52 -6 3 -7 -1 -4 -9 3
-9 2 -16 -4 -16 -5 0 -12 7 -16 15 -3 8 -11 15 -17 15 -7 0 1 -12 16 -26 l28
-26 -29 4 c-20 2 -28 8 -26 18 3 12 1 12 -9 3 -11 -11 -42 -7 -35 6 2 3 -8 7
-22 8 -15 0 -28 6 -30 12 -2 5 -10 7 -19 4 -11 -4 -14 -2 -9 5 4 7 2 10 -6 7
-7 -2 -22 2 -33 11 -17 13 -18 16 -5 24 10 7 11 10 2 10 -7 0 -15 -6 -18 -14
-5 -12 -12 -12 -52 1 -26 9 -51 20 -57 24 -5 5 -17 9 -27 9 -10 0 -18 4 -18 9
0 11 -50 44 -57 38 -3 -3 8 -13 24 -22 15 -9 19 -13 8 -9 -79 27 -102 35 -115
41 -8 3 -19 7 -25 9 -5 1 -23 7 -40 14 -16 6 -31 11 -33 10 -2 -1 -14 6 -28
15 -14 9 -32 14 -40 11 -8 -3 -14 -1 -14 4 0 5 -7 6 -17 3 -10 -4 -14 -2 -10
4 4 6 0 14 -9 17 -8 3 -12 2 -9 -4 9 -15 11 -16 -90 25 -11 5 -23 8 -27 7 -6
-1 -106 31 -138 45 -8 3 -24 8 -35 10 -29 5 -219 67 -225 73 -3 3 -9 5 -15 5
-27 0 -145 38 -145 47 0 6 -7 7 -16 4 -9 -4 -13 -2 -8 5 4 8 -1 9 -16 4 -15
-5 -20 -4 -16 4 4 7 1 9 -8 5 -9 -3 -30 -1 -48 6 -18 6 -43 14 -56 16 -13 3
-42 11 -65 18 -23 8 -82 26 -132 40 -49 15 -110 33 -135 42 -25 9 -56 18 -70
20 -59 11 -107 27 -138 45 -35 20 -57 26 -32 8 11 -8 9 -9 -10 -3 -14 4 -28
11 -31 16 -3 5 -10 8 -15 7 -5 -1 -11 0 -14 1 -3 1 -14 3 -25 5 -62 11 -185
48 -185 55 0 5 -7 11 -16 14 -8 3 -12 2 -9 -4 8 -13 1 -13 -40 4 -18 8 -36 12
-39 8 -3 -3 -6 -1 -6 5 0 6 -9 9 -19 6 -16 -4 -500 122 -661 172 -57 18 -721
195 -730 195 -4 0 -13 -37 -19 -82z"/>
<path d="M49410 13868 c-14 -7 -65 -30 -115 -53 -49 -22 -129 -59 -177 -80
-47 -22 -84 -44 -81 -49 4 -5 1 -6 -5 -2 -20 12 -246 -120 -238 -140 3 -7 -2
-10 -13 -7 -10 2 -39 -15 -74 -46 -32 -28 -64 -51 -71 -51 -8 0 -30 -18 -50
-40 -20 -22 -42 -40 -50 -40 -8 0 -18 -5 -22 -12 -4 -6 -3 -8 4 -4 6 3 13 3
16 -2 2 -4 -9 -17 -25 -27 -16 -11 -29 -26 -29 -33 0 -8 -5 -10 -12 -6 -8 5
-9 2 -5 -9 4 -11 1 -17 -8 -17 -8 0 -15 5 -15 12 0 6 -3 8 -6 5 -4 -4 -2 -13
5 -21 9 -11 8 -15 -4 -20 -9 -3 -21 -19 -26 -36 -6 -17 -16 -27 -22 -23 -6 4
-8 0 -4 -10 4 -10 2 -16 -6 -14 -7 1 -11 -4 -9 -11 1 -8 -2 -11 -7 -8 -9 6
-25 -23 -17 -31 3 -3 73 3 156 12 101 11 201 16 299 13 133 -3 151 -6 206 -31
39 -18 68 -40 83 -61 28 -41 52 -116 52 -162 0 -55 -40 -161 -77 -204 -21 -24
-31 -45 -27 -52 4 -7 4 -10 -1 -6 -4 4 -27 -7 -49 -25 -97 -79 -322 -207 -363
-207 -8 0 -11 -4 -8 -10 3 -6 -1 -7 -9 -4 -9 3 -16 2 -16 -3 0 -5 -8 -9 -17
-9 -17 -1 -115 -29 -268 -78 -42 -14 -69 -28 -67 -35 1 -7 -2 -10 -7 -7 -5 4
-25 -7 -43 -23 -32 -28 -104 -121 -102 -131 1 -3 -3 -16 -10 -30 -6 -14 -11
-65 -11 -115 0 -106 16 -147 83 -212 50 -49 94 -73 123 -68 11 2 17 0 14 -6
-10 -16 77 -10 161 11 102 27 257 82 362 131 46 22 87 37 92 34 4 -2 13 -19
20 -37 20 -51 162 -393 164 -395 1 -2 18 6 37 16 130 71 164 92 162 100 -2 6
3 8 11 5 7 -3 33 6 57 20 24 14 83 47 132 73 48 26 87 52 87 58 0 11 -56 147
-90 220 -41 88 -56 126 -59 146 0 5 -5 7 -11 4 -5 -3 -7 0 -4 8 3 8 -4 32 -15
53 l-21 38 35 29 c19 16 32 33 29 39 -4 6 -3 8 3 5 10 -6 156 138 214 213 126
161 220 368 249 550 37 235 -23 483 -166 690 -61 87 -226 219 -260 206 -8 -3
-13 -2 -10 3 5 7 -19 24 -27 20 -1 0 -13 -5 -27 -11z"/>
<path d="M31609 13738 c0 -2 -2 -41 -5 -88 -2 -47 -9 -128 -15 -180 -5 -52
-11 -124 -13 -160 -2 -36 -9 -78 -15 -93 -14 -35 -14 -47 0 -27 8 11 9 6 4
-18 -4 -18 -8 -59 -9 -90 -2 -31 -4 -79 -6 -107 -3 -49 -3 -49 -10 -15 -4 19
-5 -11 -3 -67 2 -57 1 -103 -4 -103 -4 0 -7 -19 -6 -42 0 -23 -3 -83 -8 -132
-5 -50 -12 -127 -14 -171 -3 -44 -10 -120 -15 -170 -6 -49 -12 -135 -15 -190
-3 -55 -8 -111 -12 -125 -3 -14 -7 -54 -8 -90 -2 -68 -12 -203 -20 -280 -7
-53 -11 -106 -20 -257 -4 -62 -11 -113 -14 -113 -4 0 -6 -21 -5 -47 1 -27 -2
-91 -7 -143 -11 -116 -38 -458 -45 -560 -3 -41 -8 -86 -11 -100 -3 -14 -7 -67
-9 -119 -2 -63 -7 -97 -16 -102 -11 -7 -11 -9 0 -9 9 0 11 -7 6 -22 -4 -13 -6
-45 -5 -71 1 -35 -1 -47 -10 -42 -8 5 -9 -1 -5 -23 6 -24 -20 -388 -40 -562
-3 -25 -6 -69 -7 -97 -1 -37 -6 -53 -16 -53 -11 0 -11 -3 -1 -15 10 -12 10
-15 -1 -15 -11 0 -11 -3 1 -11 12 -8 12 -12 2 -16 -8 -3 -10 -9 -3 -16 10 -13
2 -159 -8 -153 -4 3 -7 -28 -7 -67 0 -40 -3 -126 -5 -192 -3 -66 0 -212 7
-325 8 -113 20 -335 29 -495 15 -290 23 -445 70 -1400 14 -280 32 -645 40
-810 8 -165 22 -446 31 -625 9 -179 17 -330 19 -336 3 -10 535 -29 830 -29
l80 0 8 75 c5 41 33 273 62 515 30 242 63 523 75 625 12 102 41 347 65 545 24
198 53 446 65 550 11 105 32 282 46 395 21 177 43 363 120 1025 7 66 16 143
18 170 2 28 18 104 35 170 18 66 33 125 35 132 1 7 9 20 19 30 10 12 13 24 8
32 -5 8 1 44 14 90 13 42 26 91 30 110 5 25 10 30 16 20 6 -9 7 -4 3 15 -5 20
-4 27 4 22 8 -5 10 -1 6 9 -4 9 3 43 15 76 12 32 24 69 26 82 2 12 10 42 17
67 11 42 13 43 20 20 6 -21 7 -20 3 7 -4 28 3 60 22 113 3 8 7 20 8 25 14 60
39 134 45 130 4 -2 11 -46 15 -97 4 -51 10 -115 12 -143 3 -27 7 -70 10 -95 2
-25 6 -65 8 -90 3 -25 7 -74 9 -110 3 -36 8 -73 11 -82 4 -10 4 -25 1 -34 -4
-9 -2 -22 3 -28 5 -6 11 -29 13 -51 2 -22 6 -42 10 -45 3 -3 9 -23 11 -45 2
-22 7 -47 10 -55 4 -8 18 -71 32 -140 14 -69 29 -142 34 -164 5 -21 7 -45 4
-52 -3 -8 0 -14 6 -14 6 0 10 -3 9 -7 -1 -5 4 -35 11 -68 7 -33 17 -81 23
-107 5 -26 6 -52 2 -59 -4 -8 -3 -9 4 -5 7 4 12 6 12 4 0 -4 95 -453 179 -843
22 -104 72 -341 110 -525 39 -184 93 -441 120 -570 28 -129 82 -386 120 -570
85 -404 189 -897 196 -927 5 -22 9 -23 123 -23 218 0 641 13 652 20 9 5 6 82
-10 290 -21 286 -21 299 13 300 4 0 7 5 7 12 0 9 -3 9 -12 0 -23 -23 -30 -11
-26 43 3 30 2 55 -2 55 -3 0 -5 28 -5 63 1 34 -3 66 -9 70 -8 6 -7 10 2 14 6
2 12 9 12 14 0 6 -4 7 -10 4 -10 -6 -13 36 -14 187 -1 42 -4 71 -8 65 -4 -7
-7 11 -7 38 0 74 -8 202 -14 211 -10 16 -6 113 5 120 7 4 6 9 -3 15 -14 8 -20
89 -7 89 13 0 9 27 -6 39 -10 9 -14 33 -13 86 1 41 -1 75 -4 75 -4 0 -6 24 -5
53 1 28 -1 57 -5 62 -7 9 -20 192 -24 330 0 34 -5 66 -9 73 -4 6 -6 31 -5 54
1 24 -1 63 -6 87 -5 31 -4 42 4 37 6 -4 11 -3 11 3 0 5 -4 11 -10 13 -9 3 -13
46 -26 253 -1 28 -5 85 -8 127 -2 43 -7 90 -10 105 -3 16 -8 80 -11 143 -3 63
-5 115 -6 115 -3 0 -11 132 -13 197 0 38 -3 68 -6 68 -3 0 -6 17 -7 38 -1 36
-8 151 -19 285 -3 41 -1 67 5 67 5 0 3 12 -4 27 -10 18 -11 31 -5 37 12 12 13
29 1 22 -5 -3 -9 9 -10 27 0 17 -5 68 -10 112 -5 44 -8 106 -7 138 0 31 -3 57
-8 57 -5 0 -3 7 4 15 10 12 10 15 0 15 -10 0 -11 136 -7 653 8 836 17 1465 23
1497 2 14 4 71 5 128 0 63 4 100 9 97 6 -4 10 -1 10 4 0 6 -4 11 -10 11 -6 0
-10 30 -10 70 0 39 4 70 9 70 4 0 6 12 3 26 -3 16 1 30 9 35 10 6 10 9 2 9
-17 0 -16 180 1 180 6 0 5 4 -3 9 -9 6 -11 16 -6 27 4 11 6 56 5 102 -1 52 3
89 11 98 8 10 8 14 0 14 -16 0 -14 25 4 40 8 7 15 18 15 24 0 6 -5 4 -10 -4
-6 -10 -9 12 -8 68 1 46 5 85 8 87 3 2 5 37 4 79 0 42 2 76 5 76 4 0 4 27 3
60 -2 33 0 60 5 60 4 0 9 48 11 107 2 59 6 112 9 117 3 5 6 120 6 255 l0 246
-39 -1 c-22 -1 -97 -12 -169 -23 -712 -117 -1487 -137 -1995 -51 -323 55 -620
165 -786 290 -30 22 -54 39 -55 38z"/>
<path d="M14162 12977 c-35 -18 -59 -37 -55 -41 4 -5 2 -6 -4 -2 -16 9 -96
-37 -86 -49 5 -4 3 -5 -4 -1 -7 4 -36 -9 -65 -30 -64 -43 -68 -47 -43 -39 15
5 17 4 6 -3 -8 -6 -20 -8 -26 -6 -18 7 -172 -147 -190 -189 -21 -50 -19 -99 6
-144 25 -46 67 -86 81 -77 7 4 8 2 4 -5 -4 -6 -13 -8 -19 -4 -7 4 19 -27 57
-70 38 -42 74 -74 80 -70 6 3 8 2 3 -2 -10 -11 73 -96 86 -88 6 3 7 1 3 -6 -4
-6 1 -14 13 -19 11 -4 21 -11 21 -17 1 -5 6 -9 12 -7 5 1 7 -1 4 -6 -7 -11 32
-44 44 -37 6 3 7 -1 4 -9 -3 -9 -1 -16 4 -16 6 0 26 -17 46 -37 29 -31 37 -35
50 -24 13 11 14 9 10 -15 -3 -16 -3 -26 0 -23 4 3 23 -10 44 -30 87 -83 293
-242 304 -235 6 4 8 3 5 -3 -4 -6 12 -23 36 -39 23 -16 44 -32 45 -37 2 -4 8
-5 13 -1 5 3 9 0 9 -6 0 -6 5 -8 12 -4 7 4 8 3 4 -5 -4 -6 0 -14 11 -18 10 -4
50 -29 90 -56 42 -28 77 -46 84 -41 7 4 9 3 6 -3 -11 -17 104 -65 168 -70 67
-4 97 7 128 48 17 24 18 33 9 80 -19 98 -23 113 -44 179 -22 70 -24 75 -87
222 -22 53 -41 101 -41 108 0 6 -5 8 -12 4 -6 -4 -8 -3 -4 4 7 12 -19 76 -43
105 -8 9 -11 17 -7 17 8 0 -45 94 -56 98 -5 2 -6 7 -3 11 2 5 -3 17 -11 27
-14 17 -15 17 -10 2 7 -25 -1 -22 -15 3 -8 15 -8 19 0 15 18 -12 13 9 -16 60
-16 27 -37 67 -48 89 -13 26 -27 40 -40 40 -11 1 -19 6 -18 12 3 14 -52 55
-61 46 -3 -3 -6 -2 -6 4 0 5 -35 39 -77 76 -43 36 -105 92 -138 126 -42 42
-62 56 -68 48 -6 -8 -7 -5 -3 6 4 13 -9 35 -45 75 -28 32 -58 69 -67 85 -9 15
-19 27 -22 27 -3 -1 -33 -16 -68 -33z"/>
<path d="M47398 9423 c-3 -44 -9 -78 -37 -238 -17 -93 -31 -184 -31 -202 0
-37 -4 -41 -54 -49 -114 -18 -299 -90 -411 -159 -22 -14 -46 -28 -52 -31 -7
-3 -10 -11 -6 -17 3 -6 1 -7 -5 -3 -28 17 -221 -165 -299 -282 -60 -91 -113
-208 -141 -311 -22 -81 -26 -118 -26 -236 -1 -121 2 -150 22 -210 42 -127 112
-224 225 -313 91 -72 199 -129 412 -216 252 -104 377 -171 452 -242 29 -27 53
-91 53 -139 0 -50 -27 -124 -57 -157 -8 -9 -12 -21 -8 -27 3 -6 0 -9 -8 -6 -7
3 -22 -4 -32 -15 -24 -27 -85 -55 -167 -78 -49 -13 -100 -17 -223 -16 -159 1
-236 12 -375 49 -48 14 -80 16 -123 11 -31 -4 -55 -11 -52 -16 3 -4 -3 -6 -13
-4 -44 12 -203 -144 -188 -183 3 -8 2 -12 -2 -9 -16 10 -32 -61 -28 -123 6
-102 68 -173 180 -206 67 -20 216 -44 330 -53 73 -6 90 -10 87 -22 -2 -8 -5
-28 -6 -45 -2 -16 -5 -37 -8 -45 -6 -16 -47 -287 -47 -307 0 -15 63 -16 312
-7 l164 7 18 126 c9 69 24 172 33 227 l16 102 58 11 c32 7 61 16 64 22 4 5 10
7 15 4 13 -8 146 44 250 98 102 53 226 145 302 224 25 26 75 92 111 145 50 75
73 122 103 215 38 116 39 121 39 267 0 111 -3 150 -13 154 -6 2 -10 8 -7 13 4
5 -11 46 -33 92 -27 57 -58 104 -103 151 -84 90 -145 134 -282 204 -128 66
-162 80 -307 132 -129 46 -214 83 -218 93 -2 4 -10 7 -17 7 -22 0 -133 98
-163 143 -24 37 -27 51 -27 127 0 72 4 92 27 135 14 28 35 58 47 69 11 10 18
23 14 29 -3 5 -1 7 4 4 14 -9 114 58 105 69 -4 4 -1 4 5 0 7 -4 45 3 85 16 64
19 93 22 243 21 132 -1 191 -6 265 -22 119 -26 158 -36 193 -50 50 -20 137
-13 197 15 84 39 173 135 154 166 -4 6 -3 8 3 5 16 -10 45 77 45 136 1 108
-60 190 -168 226 -97 32 -300 70 -405 77 -52 3 -99 7 -105 9 -8 2 -9 19 -3 57
19 115 59 379 59 388 0 6 -85 10 -220 10 -202 0 -220 -1 -222 -17z"/>
</g>
</svg>
